<svg width="190" height="190" viewBox="0 0 190 190" fill="none" xmlns="http://www.w3.org/2000/svg">
<mask id="path-1-inside-1_34_108" fill="white">
<path fill-rule="evenodd" clip-rule="evenodd" d="M170.856 37.7995C153.515 14.8391 125.99 0 95 0C62.1438 0 33.1834 16.6796 16.1243 42.0332L21.3013 51H10.7819C3.89511 64.1546 0 79.1224 0 95C0 112.926 4.96524 129.693 13.5955 144H24.3013L19.384 152.517C36.7383 175.297 64.1522 190 95 190C128.403 190 157.78 172.76 174.718 146.693L169.699 138H179.734C186.299 125.089 190 110.477 190 95C190 76.6542 184.8 59.523 175.793 45H166.699L170.856 37.7995ZM50.3793 43V43.9083C50.3793 45.0128 51.2747 45.9083 52.3793 45.9083H57H59.2389C59.6447 45.9083 60.0409 46.0317 60.3749 46.2622L62.5429 47.7584C62.652 47.8336 62.7533 47.9196 62.8453 48.0149L64.0419 49.2536C64.4021 49.6264 64.6034 50.1246 64.6034 50.6431V50.8165V136.744C64.6034 137.045 64.5354 137.343 64.4044 137.614L63.7947 138.876C63.7023 139.068 63.5799 139.243 63.4322 139.396L61.4 141.5C61.0232 141.89 60.504 142.11 59.9616 142.11H59.8621H58.8143C58.2718 142.11 57.7527 141.89 57.3758 141.5L57.2402 141.359C57.0925 141.206 56.9701 141.031 56.8777 140.84L52.4154 131.601C52.323 131.409 52.2006 131.234 52.0529 131.081L51.3276 130.33L50.6072 129.585C50.4563 129.428 50.2809 129.298 50.0881 129.198L48.9152 128.591C48.6311 128.444 48.3158 128.367 47.9958 128.367H46.8408C46.6718 128.367 46.5034 128.388 46.3397 128.431L43.3388 129.207C42.982 129.3 42.6576 129.489 42.4015 129.754L40.8966 131.312L40.1712 132.063C40.0235 132.216 39.9012 132.391 39.8087 132.583L39.1991 133.845C39.0681 134.116 39 134.413 39 134.715V135.239V138.183V138.707C39 139.009 39.0681 139.306 39.1991 139.577L39.9483 141.128L40.757 142.803C40.8494 142.994 40.9718 143.17 41.1195 143.323L42.6547 144.912C42.7467 145.007 42.848 145.093 42.9571 145.168L45.4128 146.863C45.5622 146.966 45.7249 147.048 45.8965 147.108L48.1657 147.891C48.3756 147.963 48.5961 148 48.8181 148H52.2759H58.9138H59.8621H60.8103H63.3198C63.5418 148 63.7623 147.963 63.9722 147.891L66.2415 147.108C66.413 147.048 66.5757 146.966 66.7251 146.863L69.1808 145.168C69.2899 145.093 69.3912 145.007 69.4833 144.912L72.1897 142.11L74.9303 138.327C74.9996 138.232 75.0603 138.13 75.1117 138.024L76.838 134.449C76.8999 134.321 76.9479 134.187 76.9812 134.049L78.8276 126.404L79.7759 119.532V112.661V53.7615V51.6248C79.7759 51.1063 79.9772 50.6081 80.3374 50.2352L80.7241 49.8349L83.3411 47.1258C83.492 46.9696 83.6673 46.839 83.8602 46.7392L85.0331 46.1321C85.3172 45.985 85.6325 45.9083 85.9524 45.9083H88.5H90H92C93.1046 45.9083 94 45.0128 94 43.9083V42.9633V41.9817C94 41.4395 93.5605 41 93.0183 41H92.1034H91.1552H52.3793C51.2747 41 50.3793 41.8954 50.3793 43ZM95.7055 43.9537V43C95.7055 41.8954 96.601 41 97.7055 41H127.454H131.615C132.709 41 133.596 41.8871 133.596 42.9815C133.596 44.0758 132.709 44.963 131.615 44.963H127.454H126.361C126.043 44.963 125.73 45.0386 125.447 45.1837L123.947 45.9537L122.789 46.7552C122.608 46.8805 122.449 47.0348 122.318 47.212L121.243 48.6685C121.117 48.839 121.019 49.0285 120.952 49.2298L120.5 50.6022C120.433 50.8044 120.399 51.0159 120.399 51.2288V54.8704V133.139V136.111V137.584C120.399 137.858 120.474 138.126 120.615 138.36C120.887 138.809 121.373 139.083 121.898 139.083H122.982H131.656H133.328C133.621 139.083 133.91 139.019 134.176 138.895L135.731 138.167C135.836 138.117 135.937 138.059 136.033 137.992L137.11 137.235C137.237 137.147 137.352 137.044 137.455 136.928L140.828 133.139L142.239 131.157L142.745 130.447C142.877 130.262 142.977 130.055 143.039 129.835L144.356 125.213L145.767 120.259L146.146 118.66C146.337 117.855 147.056 117.287 147.883 117.287H147.957C148.368 117.287 148.77 117.414 149.106 117.65L149.149 117.68C149.683 118.055 150 118.666 150 119.317V120.259V120.971C150 121.156 149.974 121.34 149.923 121.519L144.356 141.065L143.094 144.034C142.996 144.267 142.853 144.479 142.676 144.659L140.351 147.009L139.975 147.395C139.598 147.782 139.082 148 138.542 148H97.8221H96.4563C95.9852 148 95.5433 147.772 95.27 147.388C95.0944 147.142 95 146.847 95 146.544V146.019V145.798C95 144.791 95.7482 143.942 96.7467 143.814L101.893 143.157C102.446 143.086 102.945 142.788 103.268 142.333L105.583 139.083L105.918 138.613C106.159 138.275 106.288 137.869 106.288 137.453V135.12V131.511V59.8241V53.123C106.288 52.9675 106.27 52.8124 106.234 52.6611L105.673 50.2967C105.614 50.0457 105.506 49.8086 105.356 49.5985L103.665 47.224C103.534 47.039 103.371 46.8778 103.186 46.7473L102.573 46.3169C102.236 46.0805 101.835 45.9537 101.423 45.9537H99.9387H97.7055C96.601 45.9537 95.7055 45.0583 95.7055 43.9537ZM95 24C97.7614 24 100 21.7614 100 19C100 16.2386 97.7614 14 95 14C92.2386 14 90 16.2386 90 19C90 21.7614 92.2386 24 95 24ZM90 177C92.7614 177 95 174.761 95 172C95 169.239 92.7614 167 90 167C87.2386 167 85 169.239 85 172C85 174.761 87.2386 177 90 177ZM96.792 72C96.6218 72.3895 96.3552 72.7273 96.0223 72.9832C96.2977 72.781 96.616 72.634 96.9611 72.5582C96.9263 72.3633 96.8691 72.1764 96.792 72ZM95.9777 73.0167C95.5637 73.3205 95.0528 73.4999 94.5 73.4999C93.9472 73.4999 93.4363 73.3205 93.0223 73.0167C93.6168 73.4738 94 74.1921 94 74.9999C94 76.2094 93.1411 77.2183 92 77.45V77.5499C93.1411 77.7816 94 78.7905 94 79.9999C94 81.2094 93.1411 82.2183 92 82.45V82.5499C93.1411 82.7816 94 83.7905 94 84.9999C94 86.2094 93.1411 87.2183 92 87.45V87.5499C93.1411 87.7816 94 88.7905 94 89.9999C94 91.2094 93.1411 92.2183 92 92.45V92.5499C93.1411 92.7816 94 93.7905 94 94.9999C94 96.2094 93.1411 97.2183 92 97.45V97.5499C93.1411 97.7816 94 98.7905 94 99.9999C94 101.209 93.1411 102.218 92 102.45V102.55C93.1411 102.782 94 103.79 94 105C94 106.209 93.1411 107.218 92 107.45V107.55C93.1411 107.782 94 108.79 94 110C94 111.209 93.1411 112.218 92 112.45V112.55C93.1411 112.782 94 113.79 94 115C94 115.808 93.6169 116.526 93.0225 116.983C93.4364 116.679 93.9473 116.5 94.5 116.5C95.0527 116.5 95.5636 116.679 95.9775 116.983C95.3831 116.526 95 115.808 95 115C95 113.79 95.8589 112.782 97 112.55V112.45C95.8589 112.218 95 111.209 95 110C95 108.79 95.8589 107.782 97 107.55V107.45C95.8589 107.218 95 106.209 95 105C95 103.79 95.8589 102.782 97 102.55V102.45C95.8589 102.218 95 101.209 95 99.9999C95 98.7905 95.8589 97.7816 97 97.5499V97.45C95.8589 97.2183 95 96.2094 95 94.9999C95 93.7905 95.8589 92.7816 97 92.5499V92.45C95.8589 92.2183 95 91.2094 95 89.9999C95 88.7905 95.8589 87.7816 97 87.5499V87.45C95.8589 87.2183 95 86.2094 95 84.9999C95 83.7905 95.8589 82.7816 97 82.5499V82.45C95.8589 82.2183 95 81.2094 95 79.9999C95 78.7905 95.8589 77.7816 97 77.5499V77.45C95.8589 77.2183 95 76.2094 95 74.9999C95 74.1921 95.3832 73.4738 95.9777 73.0167ZM92 117.45C92.3599 117.377 92.6918 117.227 92.9775 117.017C92.5091 117.377 92.1719 117.899 92.05 118.5C92.0172 118.338 92 118.171 92 118V117.45ZM97 118C97 118.171 96.9828 118.338 96.95 118.5C96.8281 117.899 96.4909 117.377 96.0225 117.017C96.3082 117.227 96.6401 117.377 97 117.45V118ZM92.9777 72.9832C92.6448 72.7273 92.3782 72.3895 92.208 72C92.1309 72.1764 92.0737 72.3633 92.0389 72.5582C92.384 72.634 92.7023 72.781 92.9777 72.9832Z"/>
</mask>
<path fill-rule="evenodd" clip-rule="evenodd" d="M170.856 37.7995C153.515 14.8391 125.99 0 95 0C62.1438 0 33.1834 16.6796 16.1243 42.0332L21.3013 51H10.7819C3.89511 64.1546 0 79.1224 0 95C0 112.926 4.96524 129.693 13.5955 144H24.3013L19.384 152.517C36.7383 175.297 64.1522 190 95 190C128.403 190 157.78 172.76 174.718 146.693L169.699 138H179.734C186.299 125.089 190 110.477 190 95C190 76.6542 184.8 59.523 175.793 45H166.699L170.856 37.7995ZM50.3793 43V43.9083C50.3793 45.0128 51.2747 45.9083 52.3793 45.9083H57H59.2389C59.6447 45.9083 60.0409 46.0317 60.3749 46.2622L62.5429 47.7584C62.652 47.8336 62.7533 47.9196 62.8453 48.0149L64.0419 49.2536C64.4021 49.6264 64.6034 50.1246 64.6034 50.6431V50.8165V136.744C64.6034 137.045 64.5354 137.343 64.4044 137.614L63.7947 138.876C63.7023 139.068 63.5799 139.243 63.4322 139.396L61.4 141.5C61.0232 141.89 60.504 142.11 59.9616 142.11H59.8621H58.8143C58.2718 142.11 57.7527 141.89 57.3758 141.5L57.2402 141.359C57.0925 141.206 56.9701 141.031 56.8777 140.84L52.4154 131.601C52.323 131.409 52.2006 131.234 52.0529 131.081L51.3276 130.33L50.6072 129.585C50.4563 129.428 50.2809 129.298 50.0881 129.198L48.9152 128.591C48.6311 128.444 48.3158 128.367 47.9958 128.367H46.8408C46.6718 128.367 46.5034 128.388 46.3397 128.431L43.3388 129.207C42.982 129.3 42.6576 129.489 42.4015 129.754L40.8966 131.312L40.1712 132.063C40.0235 132.216 39.9012 132.391 39.8087 132.583L39.1991 133.845C39.0681 134.116 39 134.413 39 134.715V135.239V138.183V138.707C39 139.009 39.0681 139.306 39.1991 139.577L39.9483 141.128L40.757 142.803C40.8494 142.994 40.9718 143.17 41.1195 143.323L42.6547 144.912C42.7467 145.007 42.848 145.093 42.9571 145.168L45.4128 146.863C45.5622 146.966 45.7249 147.048 45.8965 147.108L48.1657 147.891C48.3756 147.963 48.5961 148 48.8181 148H52.2759H58.9138H59.8621H60.8103H63.3198C63.5418 148 63.7623 147.963 63.9722 147.891L66.2415 147.108C66.413 147.048 66.5757 146.966 66.7251 146.863L69.1808 145.168C69.2899 145.093 69.3912 145.007 69.4833 144.912L72.1897 142.11L74.9303 138.327C74.9996 138.232 75.0603 138.13 75.1117 138.024L76.838 134.449C76.8999 134.321 76.9479 134.187 76.9812 134.049L78.8276 126.404L79.7759 119.532V112.661V53.7615V51.6248C79.7759 51.1063 79.9772 50.6081 80.3374 50.2352L80.7241 49.8349L83.3411 47.1258C83.492 46.9696 83.6673 46.839 83.8602 46.7392L85.0331 46.1321C85.3172 45.985 85.6325 45.9083 85.9524 45.9083H88.5H90H92C93.1046 45.9083 94 45.0128 94 43.9083V42.9633V41.9817C94 41.4395 93.5605 41 93.0183 41H92.1034H91.1552H52.3793C51.2747 41 50.3793 41.8954 50.3793 43ZM95.7055 43.9537V43C95.7055 41.8954 96.601 41 97.7055 41H127.454H131.615C132.709 41 133.596 41.8871 133.596 42.9815C133.596 44.0758 132.709 44.963 131.615 44.963H127.454H126.361C126.043 44.963 125.73 45.0386 125.447 45.1837L123.947 45.9537L122.789 46.7552C122.608 46.8805 122.449 47.0348 122.318 47.212L121.243 48.6685C121.117 48.839 121.019 49.0285 120.952 49.2298L120.5 50.6022C120.433 50.8044 120.399 51.0159 120.399 51.2288V54.8704V133.139V136.111V137.584C120.399 137.858 120.474 138.126 120.615 138.36C120.887 138.809 121.373 139.083 121.898 139.083H122.982H131.656H133.328C133.621 139.083 133.91 139.019 134.176 138.895L135.731 138.167C135.836 138.117 135.937 138.059 136.033 137.992L137.11 137.235C137.237 137.147 137.352 137.044 137.455 136.928L140.828 133.139L142.239 131.157L142.745 130.447C142.877 130.262 142.977 130.055 143.039 129.835L144.356 125.213L145.767 120.259L146.146 118.66C146.337 117.855 147.056 117.287 147.883 117.287H147.957C148.368 117.287 148.77 117.414 149.106 117.65L149.149 117.68C149.683 118.055 150 118.666 150 119.317V120.259V120.971C150 121.156 149.974 121.34 149.923 121.519L144.356 141.065L143.094 144.034C142.996 144.267 142.853 144.479 142.676 144.659L140.351 147.009L139.975 147.395C139.598 147.782 139.082 148 138.542 148H97.8221H96.4563C95.9852 148 95.5433 147.772 95.27 147.388C95.0944 147.142 95 146.847 95 146.544V146.019V145.798C95 144.791 95.7482 143.942 96.7467 143.814L101.893 143.157C102.446 143.086 102.945 142.788 103.268 142.333L105.583 139.083L105.918 138.613C106.159 138.275 106.288 137.869 106.288 137.453V135.12V131.511V59.8241V53.123C106.288 52.9675 106.27 52.8124 106.234 52.6611L105.673 50.2967C105.614 50.0457 105.506 49.8086 105.356 49.5985L103.665 47.224C103.534 47.039 103.371 46.8778 103.186 46.7473L102.573 46.3169C102.236 46.0805 101.835 45.9537 101.423 45.9537H99.9387H97.7055C96.601 45.9537 95.7055 45.0583 95.7055 43.9537ZM95 24C97.7614 24 100 21.7614 100 19C100 16.2386 97.7614 14 95 14C92.2386 14 90 16.2386 90 19C90 21.7614 92.2386 24 95 24ZM90 177C92.7614 177 95 174.761 95 172C95 169.239 92.7614 167 90 167C87.2386 167 85 169.239 85 172C85 174.761 87.2386 177 90 177ZM96.792 72C96.6218 72.3895 96.3552 72.7273 96.0223 72.9832C96.2977 72.781 96.616 72.634 96.9611 72.5582C96.9263 72.3633 96.8691 72.1764 96.792 72ZM95.9777 73.0167C95.5637 73.3205 95.0528 73.4999 94.5 73.4999C93.9472 73.4999 93.4363 73.3205 93.0223 73.0167C93.6168 73.4738 94 74.1921 94 74.9999C94 76.2094 93.1411 77.2183 92 77.45V77.5499C93.1411 77.7816 94 78.7905 94 79.9999C94 81.2094 93.1411 82.2183 92 82.45V82.5499C93.1411 82.7816 94 83.7905 94 84.9999C94 86.2094 93.1411 87.2183 92 87.45V87.5499C93.1411 87.7816 94 88.7905 94 89.9999C94 91.2094 93.1411 92.2183 92 92.45V92.5499C93.1411 92.7816 94 93.7905 94 94.9999C94 96.2094 93.1411 97.2183 92 97.45V97.5499C93.1411 97.7816 94 98.7905 94 99.9999C94 101.209 93.1411 102.218 92 102.45V102.55C93.1411 102.782 94 103.79 94 105C94 106.209 93.1411 107.218 92 107.45V107.55C93.1411 107.782 94 108.79 94 110C94 111.209 93.1411 112.218 92 112.45V112.55C93.1411 112.782 94 113.79 94 115C94 115.808 93.6169 116.526 93.0225 116.983C93.4364 116.679 93.9473 116.5 94.5 116.5C95.0527 116.5 95.5636 116.679 95.9775 116.983C95.3831 116.526 95 115.808 95 115C95 113.79 95.8589 112.782 97 112.55V112.45C95.8589 112.218 95 111.209 95 110C95 108.79 95.8589 107.782 97 107.55V107.45C95.8589 107.218 95 106.209 95 105C95 103.79 95.8589 102.782 97 102.55V102.45C95.8589 102.218 95 101.209 95 99.9999C95 98.7905 95.8589 97.7816 97 97.5499V97.45C95.8589 97.2183 95 96.2094 95 94.9999C95 93.7905 95.8589 92.7816 97 92.5499V92.45C95.8589 92.2183 95 91.2094 95 89.9999C95 88.7905 95.8589 87.7816 97 87.5499V87.45C95.8589 87.2183 95 86.2094 95 84.9999C95 83.7905 95.8589 82.7816 97 82.5499V82.45C95.8589 82.2183 95 81.2094 95 79.9999C95 78.7905 95.8589 77.7816 97 77.5499V77.45C95.8589 77.2183 95 76.2094 95 74.9999C95 74.1921 95.3832 73.4738 95.9777 73.0167ZM92 117.45C92.3599 117.377 92.6918 117.227 92.9775 117.017C92.5091 117.377 92.1719 117.899 92.05 118.5C92.0172 118.338 92 118.171 92 118V117.45ZM97 118C97 118.171 96.9828 118.338 96.95 118.5C96.8281 117.899 96.4909 117.377 96.0225 117.017C96.3082 117.227 96.6401 117.377 97 117.45V118ZM92.9777 72.9832C92.6448 72.7273 92.3782 72.3895 92.208 72C92.1309 72.1764 92.0737 72.3633 92.0389 72.5582C92.384 72.634 92.7023 72.781 92.9777 72.9832Z" fill="black"/>
<path d="M170.856 37.7995L171.722 38.2995L172.053 37.7256L171.654 37.1968L170.856 37.7995ZM16.1243 42.0332L15.2946 41.475L14.9462 41.9928L15.2583 42.5332L16.1243 42.0332ZM21.3013 51V52H23.0333L22.1673 50.5L21.3013 51ZM10.7819 51V50H10.1767L9.89597 50.5362L10.7819 51ZM13.5955 144L12.7392 144.517L13.0309 145H13.5955V144ZM24.3013 144L25.1673 144.5L26.0333 143H24.3013V144ZM19.384 152.517L18.518 152.017L18.1852 152.593L18.5886 153.123L19.384 152.517ZM174.718 146.693L175.556 147.238L175.89 146.724L175.584 146.193L174.718 146.693ZM169.699 138V137H167.967L168.833 138.5L169.699 138ZM179.734 138V139H180.347L180.625 138.453L179.734 138ZM175.793 45L176.643 44.4729L176.349 44H175.793V45ZM166.699 45L165.833 44.5L164.967 46H166.699V45ZM60.3749 46.2622L60.9429 45.4392H60.9429L60.3749 46.2622ZM62.5429 47.7584L61.9749 48.5814L61.9749 48.5814L62.5429 47.7584ZM62.8453 48.0149L63.5646 47.3201L63.5646 47.3201L62.8453 48.0149ZM64.0419 49.2536L63.3227 49.9483L64.0419 49.2536ZM64.4044 137.614L65.3048 138.049H65.3049L64.4044 137.614ZM63.7947 138.876L64.6952 139.311L64.6952 139.311L63.7947 138.876ZM63.4322 139.396L62.713 138.701L62.713 138.701L63.4322 139.396ZM61.4 141.5L60.6808 140.805L60.6808 140.805L61.4 141.5ZM57.3758 141.5L58.0951 140.805L58.095 140.805L57.3758 141.5ZM57.2402 141.359L56.5209 142.054L56.521 142.054L57.2402 141.359ZM56.8777 140.84L57.7782 140.405L57.7782 140.405L56.8777 140.84ZM52.4154 131.601L51.5149 132.036L51.5149 132.036L52.4154 131.601ZM52.0529 131.081L52.7722 130.386L52.7722 130.386L52.0529 131.081ZM51.3276 130.33L50.6084 131.025L51.3276 130.33ZM50.6072 129.585L49.8879 130.279L49.8879 130.279L50.6072 129.585ZM50.0881 129.198L49.6284 130.086L49.6284 130.086L50.0881 129.198ZM48.9152 128.591L49.3749 127.703L49.3749 127.703L48.9152 128.591ZM46.3397 128.431L46.5903 129.399L46.5903 129.399L46.3397 128.431ZM43.3388 129.207L43.5893 130.176H43.5894L43.3388 129.207ZM42.4015 129.754L43.1207 130.449L43.1207 130.449L42.4015 129.754ZM40.8966 131.312L40.1773 130.617H40.1773L40.8966 131.312ZM40.1712 132.063L40.8904 132.758L40.8904 132.758L40.1712 132.063ZM39.8087 132.583L38.9083 132.148L38.9083 132.148L39.8087 132.583ZM39.1991 133.845L38.2986 133.41L38.2986 133.41L39.1991 133.845ZM39.1991 139.577L38.2986 140.012L39.1991 139.577ZM39.9483 141.128L39.0478 141.563L39.9483 141.128ZM40.757 142.803L39.8565 143.238L39.8566 143.238L40.757 142.803ZM41.1195 143.323L41.8387 142.628L41.8387 142.628L41.1195 143.323ZM42.6547 144.912L43.3739 144.217L43.3739 144.217L42.6547 144.912ZM42.9571 145.168L42.389 145.991L42.3891 145.991L42.9571 145.168ZM45.4128 146.863L45.9809 146.04L45.9808 146.04L45.4128 146.863ZM45.8965 147.108L46.2227 146.162L46.2226 146.162L45.8965 147.108ZM48.1657 147.891L47.8395 148.836L47.8396 148.836L48.1657 147.891ZM63.9722 147.891L64.2984 148.836L64.2984 148.836L63.9722 147.891ZM66.2415 147.108L65.9153 146.162L65.9153 146.162L66.2415 147.108ZM66.7251 146.863L66.1571 146.04L66.157 146.04L66.7251 146.863ZM69.1808 145.168L69.7488 145.991L69.7489 145.991L69.1808 145.168ZM69.4833 144.912L68.764 144.217L68.764 144.217L69.4833 144.912ZM72.1897 142.11L72.9089 142.805L72.958 142.754L72.9995 142.697L72.1897 142.11ZM74.9303 138.327L74.1206 137.74L74.1205 137.741L74.9303 138.327ZM75.1117 138.024L74.2112 137.589L75.1117 138.024ZM76.838 134.449L77.7385 134.884L77.7385 134.884L76.838 134.449ZM76.9812 134.049L76.0092 133.814L76.0092 133.814L76.9812 134.049ZM78.8276 126.404L79.7996 126.638L79.8114 126.59L79.8182 126.54L78.8276 126.404ZM79.7759 119.532L80.7665 119.669L80.7759 119.601V119.532H79.7759ZM80.3374 50.2352L79.6182 49.5404V49.5404L80.3374 50.2352ZM80.7241 49.8349L81.4434 50.5296L80.7241 49.8349ZM83.3411 47.1258L82.6219 46.431H82.6219L83.3411 47.1258ZM83.8602 46.7392L83.4005 45.8511L83.4005 45.8511L83.8602 46.7392ZM85.0331 46.1321L85.4928 47.0202L85.4928 47.0202L85.0331 46.1321ZM125.447 45.1837L124.99 44.2941L124.99 44.2941L125.447 45.1837ZM123.947 45.9537L123.491 45.0641L123.432 45.0941L123.378 45.1314L123.947 45.9537ZM122.789 46.7552L122.22 45.9329L122.22 45.9329L122.789 46.7552ZM122.318 47.212L123.123 47.8059V47.8059L122.318 47.212ZM121.243 48.6685L122.047 49.2624L122.047 49.2624L121.243 48.6685ZM120.952 49.2298L121.902 49.5431V49.5431L120.952 49.2298ZM120.5 50.6022L121.449 50.9155L120.5 50.6022ZM120.615 138.36L119.759 138.877H119.759L120.615 138.36ZM134.176 138.895L133.752 137.989H133.752L134.176 138.895ZM135.731 138.167L135.307 137.261L135.307 137.261L135.731 138.167ZM136.033 137.992L135.458 137.174L135.458 137.174L136.033 137.992ZM137.11 137.235L136.536 136.417L136.536 136.417L137.11 137.235ZM137.455 136.928L138.202 137.593L137.455 136.928ZM140.828 133.139L141.575 133.804L141.611 133.763L141.643 133.719L140.828 133.139ZM142.239 131.157L141.425 130.577H141.425L142.239 131.157ZM142.745 130.447L141.93 129.867V129.867L142.745 130.447ZM143.039 129.835L142.077 129.561V129.561L143.039 129.835ZM144.356 125.213L145.318 125.487L144.356 125.213ZM145.767 120.259L146.729 120.533L146.735 120.512L146.74 120.49L145.767 120.259ZM146.146 118.66L145.174 118.429L146.146 118.66ZM149.106 117.65L149.681 116.832L149.681 116.832L149.106 117.65ZM149.149 117.68L148.575 118.499L148.575 118.499L149.149 117.68ZM149.923 121.519L150.885 121.793L150.885 121.793L149.923 121.519ZM144.356 141.065L145.276 141.456L145.3 141.399L145.318 141.339L144.356 141.065ZM143.094 144.034L142.174 143.643L142.174 143.643L143.094 144.034ZM142.676 144.659L143.387 145.362L143.387 145.362L142.676 144.659ZM140.351 147.009L139.64 146.306L139.634 146.312L140.351 147.009ZM139.975 147.395L140.691 148.093L140.691 148.093L139.975 147.395ZM95.27 147.388L96.0846 146.808L96.0846 146.808L95.27 147.388ZM96.7467 143.814L96.8734 144.806L96.7467 143.814ZM101.893 143.157L102.019 144.149H102.019L101.893 143.157ZM103.268 142.333L104.083 142.913L104.083 142.913L103.268 142.333ZM105.583 139.083L106.397 139.663L105.583 139.083ZM105.918 138.613L106.732 139.193L106.732 139.193L105.918 138.613ZM106.234 52.6611L105.261 52.8921V52.8921L106.234 52.6611ZM105.673 50.2967L106.646 50.0658V50.0657L105.673 50.2967ZM105.356 49.5985L106.171 49.0184L106.171 49.0184L105.356 49.5985ZM103.665 47.224L104.48 46.6439L104.48 46.6439L103.665 47.224ZM103.186 46.7473L103.76 45.9289V45.9289L103.186 46.7473ZM102.573 46.3169L101.998 47.1353L101.998 47.1353L102.573 46.3169ZM96.0223 72.9832L95.4129 72.1903L96.6141 73.7893L96.0223 72.9832ZM96.792 72L97.7083 71.5995L96.792 69.5028L95.8757 71.5996L96.792 72ZM96.9611 72.5582L97.1757 73.5349L98.1142 73.3287L97.9455 72.3827L96.9611 72.5582ZM95.9777 73.0167L96.5872 73.8095L95.386 72.2105L95.9777 73.0167ZM93.0223 73.0167L93.614 72.2105L92.4128 73.8095L93.0223 73.0167ZM92 77.45L91.8011 76.4699L91 76.6325V77.45H92ZM92 77.5499H91V78.3673L91.8011 78.5299L92 77.5499ZM92 82.45L91.8011 81.4699L91 81.6325V82.45H92ZM92 82.5499H91V83.3673L91.8011 83.5299L92 82.5499ZM92 87.45L91.8011 86.4699L91 86.6325V87.45H92ZM92 87.5499H91V88.3673L91.8011 88.5299L92 87.5499ZM92 92.45L91.8011 91.4699L91 91.6325V92.45H92ZM92 92.5499H91V93.3673L91.8011 93.5299L92 92.5499ZM92 97.45L91.8011 96.4699L91 96.6325V97.45H92ZM92 97.5499H91V98.3673L91.8011 98.5299L92 97.5499ZM92 102.45L91.8011 101.47L91 101.633V102.45H92ZM92 102.55H91V103.367L91.8011 103.53L92 102.55ZM92 107.45L91.8011 106.47L91 106.633V107.45H92ZM92 107.55H91V108.367L91.8011 108.53L92 107.55ZM92 112.45L91.8011 111.47L91 111.633V112.45H92ZM92 112.55H91V113.367L91.8011 113.53L92 112.55ZM93.0225 116.983L92.413 116.19L93.6141 117.789L93.0225 116.983ZM95.9775 116.983L95.3859 117.789L96.587 116.19L95.9775 116.983ZM97 112.55L97.1989 113.53L98 113.367V112.55H97ZM97 112.45H98V111.633L97.1989 111.47L97 112.45ZM97 107.55L97.1989 108.53L98 108.367V107.55H97ZM97 107.45H98V106.633L97.1989 106.47L97 107.45ZM97 102.55L97.1989 103.53L98 103.367V102.55H97ZM97 102.45H98V101.633L97.1989 101.47L97 102.45ZM97 97.5499L97.1989 98.5299L98 98.3673V97.5499H97ZM97 97.45H98V96.6325L97.1989 96.4699L97 97.45ZM97 92.5499L97.1989 93.5299L98 93.3673V92.5499H97ZM97 92.45H98V91.6325L97.1989 91.4699L97 92.45ZM97 87.5499L97.1989 88.5299L98 88.3673V87.5499H97ZM97 87.45H98V86.6325L97.1989 86.4699L97 87.45ZM97 82.5499L97.1989 83.5299L98 83.3673V82.5499H97ZM97 82.45H98V81.6325L97.1989 81.4699L97 82.45ZM97 77.5499L97.1989 78.5299L98 78.3673V77.5499H97ZM97 77.45H98V76.6325L97.1989 76.4699L97 77.45ZM92.9775 117.017L93.5871 117.81L92.3859 116.211L92.9775 117.017ZM92 117.45L91.8011 116.47L91 116.633V117.45H92ZM92.05 118.5L91.07 118.699L93.03 118.699L92.05 118.5ZM96.95 118.5L95.97 118.699L97.93 118.699L96.95 118.5ZM96.0225 117.017L96.6141 116.211L95.4129 117.81L96.0225 117.017ZM97 117.45H98V116.633L97.1989 116.47L97 117.45ZM92.208 72L93.1243 71.5996L92.208 69.5028L91.2917 71.5995L92.208 72ZM92.9777 72.9832L92.3859 73.7893L93.5871 72.1903L92.9777 72.9832ZM92.0389 72.5582L91.0545 72.3827L90.8858 73.3287L91.8243 73.5349L92.0389 72.5582ZM95 1C125.664 1 152.898 15.6812 170.058 38.4022L171.654 37.1968C154.132 13.997 126.317 -1 95 -1V1ZM16.954 42.5915C33.8352 17.5022 62.4906 1 95 1V-1C61.7971 -1 32.5316 15.857 15.2946 41.475L16.954 42.5915ZM22.1673 50.5L16.9903 41.5332L15.2583 42.5332L20.4352 51.5L22.1673 50.5ZM10.7819 52H21.3013V50H10.7819V52ZM1 95C1 79.2878 4.85418 64.4787 11.6678 51.4638L9.89597 50.5362C2.93604 63.8305 -1 78.9571 -1 95H1ZM14.4518 143.483C5.9129 129.328 1 112.739 1 95H-1C-1 113.114 4.01758 130.058 12.7392 144.517L14.4518 143.483ZM24.3013 143H13.5955V145H24.3013V143ZM20.2501 153.017L25.1673 144.5L23.4352 143.5L18.518 152.017L20.2501 153.017ZM95 189C64.4775 189 37.3528 174.454 20.1795 151.911L18.5886 153.123C36.1239 176.141 63.8268 191 95 191V189ZM173.879 146.148C157.118 171.944 128.051 189 95 189V191C128.756 191 158.442 173.577 175.556 147.238L173.879 146.148ZM168.833 138.5L173.852 147.193L175.584 146.193L170.565 137.5L168.833 138.5ZM179.734 137H169.699V139H179.734V137ZM189 95C189 110.315 185.338 124.773 178.843 137.547L180.625 138.453C187.26 125.405 191 110.638 191 95H189ZM174.943 45.5271C183.855 59.8963 189 76.8458 189 95H191C191 76.4626 185.745 59.1496 176.643 44.4729L174.943 45.5271ZM166.699 46H175.793V44H166.699V46ZM169.99 37.2995L165.833 44.5L167.565 45.5L171.722 38.2995L169.99 37.2995ZM51.3793 43.9083V43H49.3793V43.9083H51.3793ZM52.3793 44.9083C51.827 44.9083 51.3793 44.4605 51.3793 43.9083H49.3793C49.3793 45.5651 50.7225 46.9083 52.3793 46.9083V44.9083ZM57 44.9083H52.3793V46.9083H57V44.9083ZM59.2389 44.9083H57V46.9083H59.2389V44.9083ZM60.9429 45.4392C60.4419 45.0934 59.8476 44.9083 59.2389 44.9083V46.9083C59.4418 46.9083 59.6399 46.97 59.8069 47.0852L60.9429 45.4392ZM63.1109 46.9353L60.9429 45.4392L59.8069 47.0852L61.9749 48.5814L63.1109 46.9353ZM63.5646 47.3201C63.4265 47.1771 63.2745 47.0482 63.1109 46.9353L61.9749 48.5814C62.0294 48.619 62.0801 48.662 62.1261 48.7097L63.5646 47.3201ZM64.7611 48.5588L63.5646 47.3201L62.1261 48.7097L63.3227 49.9483L64.7611 48.5588ZM65.6034 50.6431C65.6034 49.8654 65.3015 49.1181 64.7611 48.5588L63.3227 49.9483C63.5028 50.1348 63.6034 50.3839 63.6034 50.6431H65.6034ZM65.6034 50.8165V50.6431H63.6034V50.8165H65.6034ZM65.6034 136.744V50.8165H63.6034V136.744H65.6034ZM65.3049 138.049C65.5014 137.642 65.6034 137.196 65.6034 136.744H63.6034C63.6034 136.895 63.5694 137.043 63.5039 137.179L65.3049 138.049ZM64.6952 139.311L65.3048 138.049L63.5039 137.179L62.8943 138.441L64.6952 139.311ZM64.1515 140.091C64.373 139.861 64.5565 139.598 64.6952 139.311L62.8943 138.441C62.848 138.537 62.7868 138.625 62.713 138.701L64.1515 140.091ZM62.1193 142.194L64.1515 140.091L62.713 138.701L60.6808 140.805L62.1193 142.194ZM59.9616 143.11C60.7752 143.11 61.554 142.78 62.1193 142.194L60.6808 140.805C60.4924 141 60.2328 141.11 59.9616 141.11V143.11ZM59.8621 143.11H59.9616V141.11H59.8621V143.11ZM58.8143 143.11H59.8621V141.11H58.8143V143.11ZM56.6566 142.194C57.2219 142.78 58.0007 143.11 58.8143 143.11V141.11C58.543 141.11 58.2835 141 58.0951 140.805L56.6566 142.194ZM56.521 142.054L56.6567 142.194L58.095 140.805L57.9593 140.664L56.521 142.054ZM55.9772 141.274C56.1159 141.562 56.2994 141.825 56.5209 142.054L57.9594 140.664C57.8856 140.588 57.8244 140.5 57.7782 140.405L55.9772 141.274ZM51.5149 132.036L55.9772 141.274L57.7782 140.405L53.3159 131.166L51.5149 132.036ZM51.3337 131.776C51.4075 131.852 51.4687 131.94 51.5149 132.036L53.3159 131.166C53.1772 130.879 52.9937 130.616 52.7722 130.386L51.3337 131.776ZM50.6084 131.025L51.3337 131.776L52.7722 130.386L52.0468 129.635L50.6084 131.025ZM49.8879 130.279L50.6084 131.025L52.0468 129.635L51.3264 128.89L49.8879 130.279ZM49.6284 130.086C49.7248 130.136 49.8125 130.201 49.8879 130.279L51.3264 128.89C51.1001 128.655 50.837 128.46 50.5477 128.31L49.6284 130.086ZM48.4555 129.479L49.6284 130.086L50.5477 128.31L49.3749 127.703L48.4555 129.479ZM47.9958 129.367C48.1558 129.367 48.3135 129.405 48.4555 129.479L49.3749 127.703C48.9486 127.482 48.4757 127.367 47.9958 127.367V129.367ZM46.8408 129.367H47.9958V127.367H46.8408V129.367ZM46.5903 129.399C46.6721 129.378 46.7562 129.367 46.8408 129.367V127.367C46.5873 127.367 46.3347 127.399 46.0892 127.463L46.5903 129.399ZM43.5894 130.176L46.5903 129.399L46.0892 127.463L43.0883 128.239L43.5894 130.176ZM43.1207 130.449C43.2487 130.316 43.4109 130.222 43.5893 130.176L43.0883 128.239C42.553 128.378 42.0664 128.662 41.6822 129.059L43.1207 130.449ZM41.6158 132.007L43.1207 130.449L41.6822 129.059L40.1773 130.617L41.6158 132.007ZM40.8904 132.758L41.6158 132.007L40.1773 130.617L39.452 131.368L40.8904 132.758ZM40.7092 133.017C40.7554 132.922 40.8166 132.834 40.8904 132.758L39.452 131.368C39.2305 131.597 39.0469 131.861 38.9083 132.148L40.7092 133.017ZM40.0995 134.28L40.7092 133.017L38.9083 132.148L38.2986 133.41L40.0995 134.28ZM40 134.715C40 134.564 40.034 134.415 40.0995 134.28L38.2986 133.41C38.1021 133.817 38 134.263 38 134.715H40ZM40 135.239V134.715H38V135.239H40ZM40 138.183V135.239H38V138.183H40ZM40 138.707V138.183H38V138.707H40ZM40.0995 139.142C40.034 139.007 40 138.858 40 138.707H38C38 139.159 38.1021 139.605 38.2986 140.012L40.0995 139.142ZM40.8487 140.694L40.0995 139.142L38.2986 140.012L39.0478 141.563L40.8487 140.694ZM41.6575 142.368L40.8487 140.694L39.0478 141.563L39.8565 143.238L41.6575 142.368ZM41.8387 142.628C41.7649 142.551 41.7037 142.464 41.6574 142.368L39.8566 143.238C39.9952 143.525 40.1787 143.788 40.4003 144.017L41.8387 142.628ZM43.3739 144.217L41.8387 142.628L40.4002 144.017L41.9354 145.606L43.3739 144.217ZM43.5252 144.345C43.4706 144.308 43.4199 144.265 43.3739 144.217L41.9354 145.606C42.0735 145.749 42.2255 145.878 42.389 145.991L43.5252 144.345ZM45.9808 146.04L43.5251 144.345L42.3891 145.991L44.8448 147.686L45.9808 146.04ZM46.2226 146.162C46.1368 146.133 46.0555 146.092 45.9809 146.04L44.8448 147.686C45.0689 147.841 45.313 147.964 45.5703 148.053L46.2226 146.162ZM48.4919 146.945L46.2227 146.162L45.5703 148.053L47.8395 148.836L48.4919 146.945ZM48.8181 147C48.7071 147 48.5969 146.982 48.4919 146.945L47.8396 148.836C48.1544 148.945 48.4851 149 48.8181 149V147ZM52.2759 147H48.8181V149H52.2759V147ZM58.9138 147H52.2759V149H58.9138V147ZM59.8621 147H58.9138V149H59.8621V147ZM60.8103 147H59.8621V149H60.8103V147ZM63.3198 147H60.8103V149H63.3198V147ZM63.646 146.945C63.5411 146.982 63.4308 147 63.3198 147V149C63.6528 149 63.9836 148.945 64.2984 148.836L63.646 146.945ZM65.9153 146.162L63.646 146.945L64.2984 148.836L66.5677 148.053L65.9153 146.162ZM66.157 146.04C66.0824 146.092 66.0011 146.133 65.9153 146.162L66.5676 148.053C66.825 147.964 67.069 147.841 67.2931 147.686L66.157 146.04ZM68.6128 144.345L66.1571 146.04L67.2931 147.686L69.7488 145.991L68.6128 144.345ZM68.764 144.217C68.718 144.265 68.6674 144.308 68.6127 144.345L69.7489 145.991C69.9124 145.878 70.0644 145.749 70.2025 145.606L68.764 144.217ZM71.4704 141.415L68.764 144.217L70.2025 145.606L72.9089 142.805L71.4704 141.415ZM74.1205 137.741L71.3799 141.523L72.9995 142.697L75.7401 138.914L74.1205 137.741ZM74.2112 137.589C74.1855 137.642 74.1552 137.693 74.1206 137.74L75.7401 138.914C75.8441 138.771 75.9351 138.618 76.0121 138.459L74.2112 137.589ZM75.9376 134.014L74.2112 137.589L76.0121 138.459L77.7385 134.884L75.9376 134.014ZM76.0092 133.814C75.9925 133.883 75.9685 133.95 75.9376 134.015L77.7385 134.884C77.8312 134.692 77.9032 134.491 77.9533 134.284L76.0092 133.814ZM77.8555 126.169L76.0092 133.814L77.9533 134.284L79.7996 126.638L77.8555 126.169ZM78.7853 119.395L77.837 126.267L79.8182 126.54L80.7665 119.669L78.7853 119.395ZM78.7759 112.661V119.532H80.7759V112.661H78.7759ZM78.7759 53.7615V112.661H80.7759V53.7615H78.7759ZM78.7759 51.6248V53.7615H80.7759V51.6248H78.7759ZM79.6182 49.5404C79.0779 50.0998 78.7759 50.8471 78.7759 51.6248H80.7759C80.7759 51.3655 80.8765 51.1164 81.0566 50.93L79.6182 49.5404ZM80.0049 49.1401L79.6182 49.5404L81.0566 50.93L81.4434 50.5296L80.0049 49.1401ZM82.6219 46.431L80.0049 49.1401L81.4434 50.5296L84.0603 47.8206L82.6219 46.431ZM83.4005 45.8511C83.1112 46.0008 82.8482 46.1967 82.6219 46.431L84.0603 47.8206C84.1358 47.7425 84.2235 47.6772 84.3199 47.6272L83.4005 45.8511ZM84.5734 45.244L83.4005 45.8511L84.3199 47.6272L85.4928 47.0202L84.5734 45.244ZM85.9524 44.9083C85.4725 44.9083 84.9996 45.0234 84.5734 45.244L85.4928 47.0202C85.6348 46.9466 85.7925 46.9083 85.9524 46.9083V44.9083ZM88.5 44.9083H85.9524V46.9083H88.5V44.9083ZM90 44.9083H88.5V46.9083H90V44.9083ZM92 44.9083H90V46.9083H92V44.9083ZM93 43.9083C93 44.4605 92.5523 44.9083 92 44.9083V46.9083C93.6569 46.9083 95 45.5651 95 43.9083H93ZM93 42.9633V43.9083H95V42.9633H93ZM93 41.9817V42.9633H95V41.9817H93ZM93.0183 42C93.0184 42 93.0174 42 93.0157 41.9996C93.0141 41.9993 93.0124 41.9988 93.0109 41.9981C93.008 41.9969 93.0063 41.9956 93.0054 41.9946C93.0044 41.9937 93.0031 41.992 93.0019 41.9891C93.0012 41.9876 93.0007 41.9859 93.0004 41.9843C93 41.9826 93 41.9816 93 41.9817H95C95 40.8872 94.1128 40 93.0183 40V42ZM92.1034 42H93.0183V40H92.1034V42ZM91.1552 42H92.1034V40H91.1552V42ZM52.3793 42H91.1552V40H52.3793V42ZM51.3793 43C51.3793 42.4477 51.827 42 52.3793 42V40C50.7225 40 49.3793 41.3431 49.3793 43H51.3793ZM94.7055 43V43.9537H96.7055V43H94.7055ZM97.7055 40C96.0487 40 94.7055 41.3431 94.7055 43H96.7055C96.7055 42.4477 97.1532 42 97.7055 42V40ZM127.454 40H97.7055V42H127.454V40ZM131.615 40H127.454V42H131.615V40ZM134.596 42.9815C134.596 41.3349 133.262 40 131.615 40V42C132.157 42 132.596 42.4394 132.596 42.9815H134.596ZM131.615 45.963C133.262 45.963 134.596 44.6281 134.596 42.9815H132.596C132.596 43.5235 132.157 43.963 131.615 43.963V45.963ZM127.454 45.963H131.615V43.963H127.454V45.963ZM126.361 45.963H127.454V43.963H126.361V45.963ZM125.904 46.0734C126.045 46.0008 126.202 45.963 126.361 45.963V43.963C125.884 43.963 125.414 44.0765 124.99 44.2941L125.904 46.0734ZM124.404 46.8433L125.904 46.0733L124.99 44.2941L123.491 45.0641L124.404 46.8433ZM123.358 47.5776L124.516 46.776L123.378 45.1314L122.22 45.9329L123.358 47.5776ZM123.123 47.8059C123.188 47.7174 123.268 47.6402 123.358 47.5776L122.22 45.9329C121.948 46.1208 121.71 46.3523 121.514 46.618L123.123 47.8059ZM122.047 49.2624L123.123 47.8059L121.514 46.618L120.438 48.0745L122.047 49.2624ZM121.902 49.5431C121.935 49.4424 121.984 49.3477 122.047 49.2624L120.438 48.0745C120.249 48.3303 120.102 48.6146 120.003 48.9166L121.902 49.5431ZM121.449 50.9155L121.902 49.5431L120.003 48.9166L119.55 50.2889L121.449 50.9155ZM121.399 51.2288C121.399 51.1223 121.416 51.0166 121.449 50.9155L119.55 50.2889C119.45 50.5922 119.399 50.9095 119.399 51.2288H121.399ZM121.399 54.8704V51.2288H119.399V54.8704H121.399ZM121.399 133.139V54.8704H119.399V133.139H121.399ZM121.399 136.111V133.139H119.399V136.111H121.399ZM121.399 137.584V136.111H119.399V137.584H121.399ZM121.471 137.842C121.424 137.764 121.399 137.675 121.399 137.584H119.399C119.399 138.04 119.524 138.487 119.759 138.877L121.471 137.842ZM121.898 138.083C121.723 138.083 121.561 137.992 121.471 137.842L119.759 138.877C120.212 139.626 121.023 140.083 121.898 140.083V138.083ZM122.982 138.083H121.898V140.083H122.982V138.083ZM131.656 138.083H122.982V140.083H131.656V138.083ZM133.328 138.083H131.656V140.083H133.328V138.083ZM133.752 137.989C133.619 138.051 133.474 138.083 133.328 138.083V140.083C133.768 140.083 134.202 139.987 134.6 139.8L133.752 137.989ZM135.307 137.261L133.752 137.989L134.6 139.8L136.155 139.072L135.307 137.261ZM135.458 137.174C135.41 137.207 135.36 137.236 135.307 137.261L136.155 139.072C136.313 138.998 136.464 138.911 136.607 138.81L135.458 137.174ZM136.536 136.417L135.458 137.174L136.607 138.811L137.685 138.054L136.536 136.417ZM136.708 136.263C136.657 136.321 136.599 136.373 136.536 136.417L137.685 138.054C137.875 137.921 138.048 137.766 138.202 137.593L136.708 136.263ZM140.081 132.474L136.708 136.263L138.202 137.593L141.575 133.804L140.081 132.474ZM141.425 130.577L140.014 132.559L141.643 133.719L143.054 131.737L141.425 130.577ZM141.93 129.867L141.425 130.577L143.054 131.737L143.559 131.027L141.93 129.867ZM142.077 129.561C142.046 129.671 141.996 129.774 141.93 129.867L143.559 131.027C143.758 130.749 143.907 130.438 144.001 130.109L142.077 129.561ZM143.394 124.939L142.077 129.561L144.001 130.109L145.318 125.487L143.394 124.939ZM144.805 119.985L143.394 124.939L145.318 125.487L146.729 120.533L144.805 119.985ZM145.174 118.429L144.794 120.028L146.74 120.49L147.119 118.891L145.174 118.429ZM147.883 116.287C146.593 116.287 145.472 117.173 145.174 118.429L147.119 118.891C147.203 118.537 147.52 118.287 147.883 118.287V116.287ZM147.957 116.287H147.883V118.287H147.957V116.287ZM149.681 116.832C149.176 116.477 148.574 116.287 147.957 116.287V118.287C148.163 118.287 148.363 118.35 148.532 118.469L149.681 116.832ZM149.724 116.862L149.681 116.832L148.532 118.469L148.575 118.499L149.724 116.862ZM151 119.317C151 118.34 150.524 117.424 149.724 116.862L148.575 118.499C148.841 118.686 149 118.991 149 119.317H151ZM151 120.259V119.317H149V120.259H151ZM151 120.971V120.259H149V120.971H151ZM150.885 121.793C150.961 121.525 151 121.249 151 120.971H149C149 121.063 148.987 121.156 148.962 121.245L150.885 121.793ZM145.318 141.339L150.885 121.793L148.962 121.245L143.394 140.791L145.318 141.339ZM144.015 144.425L145.276 141.456L143.435 140.674L142.174 143.643L144.015 144.425ZM143.387 145.362C143.653 145.092 143.866 144.774 144.015 144.425L142.174 143.643C142.125 143.76 142.053 143.866 141.965 143.956L143.387 145.362ZM141.062 147.712L143.387 145.362L141.965 143.956L139.64 146.306L141.062 147.712ZM140.691 148.093L141.067 147.707L139.634 146.312L139.258 146.698L140.691 148.093ZM138.542 149C139.351 149 140.126 148.673 140.691 148.093L139.258 146.698C139.07 146.891 138.812 147 138.542 147V149ZM97.8221 149H138.542V147H97.8221V149ZM96.4563 149H97.8221V147H96.4563V149ZM94.4555 147.969C94.9163 148.616 95.6618 149 96.4563 149V147C96.3087 147 96.1702 146.929 96.0846 146.808L94.4555 147.969ZM94 146.544C94 147.054 94.1592 147.553 94.4555 147.969L96.0846 146.808C96.0296 146.731 96 146.639 96 146.544H94ZM94 146.019V146.544H96V146.019H94ZM94 145.798V146.019H96V145.798H94ZM96.6201 142.822C95.1223 143.013 94 144.288 94 145.798H96C96 145.295 96.3741 144.87 96.8734 144.806L96.6201 142.822ZM101.766 142.165L96.6201 142.822L96.8734 144.806L102.019 144.149L101.766 142.165ZM102.454 141.753C102.292 141.981 102.043 142.13 101.766 142.165L102.019 144.149C102.849 144.043 103.598 143.595 104.083 142.913L102.454 141.753ZM104.768 138.503L102.454 141.753L104.083 142.913L106.397 139.663L104.768 138.503ZM105.103 138.033L104.768 138.503L106.397 139.663L106.732 139.193L105.103 138.033ZM105.288 137.453C105.288 137.661 105.224 137.864 105.103 138.033L106.732 139.193C107.094 138.685 107.288 138.077 107.288 137.453H105.288ZM105.288 135.12V137.453H107.288V135.12H105.288ZM105.288 131.511V135.12H107.288V131.511H105.288ZM105.288 59.8241V131.511H107.288V59.8241H105.288ZM105.288 53.123V59.8241H107.288V53.123H105.288ZM105.261 52.8921C105.279 52.9677 105.288 53.0452 105.288 53.123H107.288C107.288 52.8897 107.261 52.6572 107.207 52.4301L105.261 52.8921ZM104.7 50.5277L105.261 52.8921L107.207 52.4301L106.646 50.0658L104.7 50.5277ZM104.542 50.1785C104.617 50.2836 104.67 50.4022 104.7 50.5277L106.646 50.0657C106.557 49.6893 106.395 49.3336 106.171 49.0184L104.542 50.1785ZM102.851 47.804L104.542 50.1786L106.171 49.0184L104.48 46.6439L102.851 47.804ZM102.611 47.5657C102.704 47.6309 102.785 47.7115 102.851 47.804L104.48 46.6439C104.282 46.3664 104.039 46.1246 103.76 45.9289L102.611 47.5657ZM101.998 47.1353L102.611 47.5657L103.76 45.9289L103.147 45.4985L101.998 47.1353ZM101.423 46.9537C101.629 46.9537 101.83 47.0171 101.998 47.1353L103.147 45.4985C102.642 45.1439 102.04 44.9537 101.423 44.9537V46.9537ZM99.9387 46.9537H101.423V44.9537H99.9387V46.9537ZM97.7055 46.9537H99.9387V44.9537H97.7055V46.9537ZM94.7055 43.9537C94.7055 45.6106 96.0487 46.9537 97.7055 46.9537V44.9537C97.1532 44.9537 96.7055 44.506 96.7055 43.9537H94.7055ZM99 19C99 21.2091 97.2091 23 95 23V25C98.3137 25 101 22.3137 101 19H99ZM95 15C97.2091 15 99 16.7909 99 19H101C101 15.6863 98.3137 13 95 13V15ZM91 19C91 16.7909 92.7909 15 95 15V13C91.6863 13 89 15.6863 89 19H91ZM95 23C92.7909 23 91 21.2091 91 19H89C89 22.3137 91.6863 25 95 25V23ZM94 172C94 174.209 92.2091 176 90 176V178C93.3137 178 96 175.314 96 172H94ZM90 168C92.2091 168 94 169.791 94 172H96C96 168.686 93.3137 166 90 166V168ZM86 172C86 169.791 87.7909 168 90 168V166C86.6863 166 84 168.686 84 172H86ZM90 176C87.7909 176 86 174.209 86 172H84C84 175.314 86.6863 178 90 178V176ZM96.6318 73.776C97.0967 73.4186 97.4697 72.9464 97.7083 72.4004L95.8757 71.5996C95.7738 71.8326 95.6136 72.036 95.4129 72.1903L96.6318 73.776ZM96.7465 71.5815C96.2621 71.6879 95.8159 71.8942 95.4306 72.177L96.6141 73.7893C96.7796 73.6678 96.9699 73.5801 97.1757 73.5349L96.7465 71.5815ZM95.8757 72.4005C95.9216 72.5056 95.9558 72.6171 95.9766 72.7337L97.9455 72.3827C97.8969 72.1096 97.8165 71.8472 97.7083 71.5995L95.8757 72.4005ZM94.5 74.4999C95.2727 74.4999 95.9896 74.2483 96.5693 73.8229L95.386 72.2105C95.1378 72.3927 94.8329 72.4999 94.5 72.4999V74.4999ZM92.4307 73.8229C93.0104 74.2483 93.7273 74.4999 94.5 74.4999V72.4999C94.1671 72.4999 93.8622 72.3927 93.614 72.2105L92.4307 73.8229ZM95 74.9999C95 73.8683 94.4619 72.8621 93.6318 72.2239L92.4128 73.8095C92.7717 74.0854 93 74.5158 93 74.9999H95ZM92.1989 78.43C93.7969 78.1056 95 76.6944 95 74.9999H93C93 75.7245 92.4853 76.331 91.8011 76.4699L92.1989 78.43ZM93 77.5499V77.45H91V77.5499H93ZM95 79.9999C95 78.3055 93.7969 76.8943 92.1989 76.5699L91.8011 78.5299C92.4853 78.6688 93 79.2754 93 79.9999H95ZM92.1989 83.43C93.7969 83.1056 95 81.6944 95 79.9999H93C93 80.7245 92.4853 81.331 91.8011 81.4699L92.1989 83.43ZM93 82.5499V82.45H91V82.5499H93ZM95 84.9999C95 83.3055 93.7969 81.8943 92.1989 81.5699L91.8011 83.5299C92.4853 83.6688 93 84.2754 93 84.9999H95ZM92.1989 88.43C93.7969 88.1056 95 86.6944 95 84.9999H93C93 85.7245 92.4853 86.331 91.8011 86.4699L92.1989 88.43ZM93 87.5499V87.45H91V87.5499H93ZM95 89.9999C95 88.3055 93.7969 86.8943 92.1989 86.5699L91.8011 88.5299C92.4853 88.6688 93 89.2754 93 89.9999H95ZM92.1989 93.43C93.7969 93.1056 95 91.6944 95 89.9999H93C93 90.7245 92.4853 91.331 91.8011 91.4699L92.1989 93.43ZM93 92.5499V92.45H91V92.5499H93ZM95 94.9999C95 93.3055 93.7969 91.8943 92.1989 91.5699L91.8011 93.5299C92.4853 93.6688 93 94.2754 93 94.9999H95ZM92.1989 98.43C93.7969 98.1056 95 96.6944 95 94.9999H93C93 95.7245 92.4853 96.331 91.8011 96.4699L92.1989 98.43ZM93 97.5499V97.45H91V97.5499H93ZM95 99.9999C95 98.3055 93.7969 96.8943 92.1989 96.5699L91.8011 98.5299C92.4853 98.6688 93 99.2754 93 99.9999H95ZM92.1989 103.43C93.7969 103.106 95 101.694 95 99.9999H93C93 100.724 92.4853 101.331 91.8011 101.47L92.1989 103.43ZM93 102.55V102.45H91V102.55H93ZM95 105C95 103.306 93.7969 101.894 92.1989 101.57L91.8011 103.53C92.4853 103.669 93 104.275 93 105H95ZM92.1989 108.43C93.7969 108.106 95 106.694 95 105H93C93 105.724 92.4853 106.331 91.8011 106.47L92.1989 108.43ZM93 107.55V107.45H91V107.55H93ZM95 110C95 108.306 93.7969 106.894 92.1989 106.57L91.8011 108.53C92.4853 108.669 93 109.275 93 110H95ZM92.1989 113.43C93.7969 113.106 95 111.694 95 110H93C93 110.724 92.4853 111.331 91.8011 111.47L92.1989 113.43ZM93 112.55V112.45H91V112.55H93ZM95 115C95 113.306 93.7969 111.894 92.1989 111.57L91.8011 113.53C92.4853 113.669 93 114.275 93 115H95ZM93.6321 117.776C94.462 117.138 95 116.131 95 115H93C93 115.484 92.7718 115.914 92.413 116.19L93.6321 117.776ZM94.5 115.5C93.7274 115.5 93.0106 115.751 92.4309 116.177L93.6141 117.789C93.8622 117.607 94.1671 117.5 94.5 117.5V115.5ZM96.5691 116.177C95.9894 115.751 95.2726 115.5 94.5 115.5V117.5C94.8329 117.5 95.1378 117.607 95.3859 117.789L96.5691 116.177ZM94 115C94 116.131 94.538 117.138 95.3679 117.776L96.587 116.19C96.2282 115.914 96 115.484 96 115H94ZM96.8011 111.57C95.2031 111.894 94 113.306 94 115H96C96 114.275 96.5147 113.669 97.1989 113.53L96.8011 111.57ZM96 112.45V112.55H98V112.45H96ZM94 110C94 111.694 95.2031 113.106 96.8011 113.43L97.1989 111.47C96.5147 111.331 96 110.724 96 110H94ZM96.8011 106.57C95.2031 106.894 94 108.306 94 110H96C96 109.275 96.5147 108.669 97.1989 108.53L96.8011 106.57ZM96 107.45V107.55H98V107.45H96ZM94 105C94 106.694 95.2031 108.106 96.8011 108.43L97.1989 106.47C96.5147 106.331 96 105.724 96 105H94ZM96.8011 101.57C95.2031 101.894 94 103.306 94 105H96C96 104.275 96.5147 103.669 97.1989 103.53L96.8011 101.57ZM96 102.45V102.55H98V102.45H96ZM94 99.9999C94 101.694 95.2031 103.106 96.8011 103.43L97.1989 101.47C96.5147 101.331 96 100.724 96 99.9999H94ZM96.8011 96.5699C95.2031 96.8943 94 98.3055 94 99.9999H96C96 99.2754 96.5147 98.6688 97.1989 98.5299L96.8011 96.5699ZM96 97.45V97.5499H98V97.45H96ZM94 94.9999C94 96.6944 95.2031 98.1056 96.8011 98.43L97.1989 96.4699C96.5147 96.331 96 95.7245 96 94.9999H94ZM96.8011 91.5699C95.2031 91.8943 94 93.3055 94 94.9999H96C96 94.2754 96.5147 93.6688 97.1989 93.5299L96.8011 91.5699ZM96 92.45V92.5499H98V92.45H96ZM94 89.9999C94 91.6944 95.2031 93.1056 96.8011 93.43L97.1989 91.4699C96.5147 91.331 96 90.7245 96 89.9999H94ZM96.8011 86.5699C95.2031 86.8943 94 88.3055 94 89.9999H96C96 89.2754 96.5147 88.6688 97.1989 88.5299L96.8011 86.5699ZM96 87.45V87.5499H98V87.45H96ZM94 84.9999C94 86.6944 95.2031 88.1056 96.8011 88.43L97.1989 86.4699C96.5147 86.331 96 85.7245 96 84.9999H94ZM96.8011 81.5699C95.2031 81.8943 94 83.3055 94 84.9999H96C96 84.2754 96.5147 83.6688 97.1989 83.5299L96.8011 81.5699ZM96 82.45V82.5499H98V82.45H96ZM94 79.9999C94 81.6944 95.2031 83.1056 96.8011 83.43L97.1989 81.4699C96.5147 81.331 96 80.7245 96 79.9999H94ZM96.8011 76.5699C95.2031 76.8943 94 78.3055 94 79.9999H96C96 79.2754 96.5147 78.6688 97.1989 78.5299L96.8011 76.5699ZM96 77.45V77.5499H98V77.45H96ZM94 74.9999C94 76.6944 95.2031 78.1056 96.8011 78.43L97.1989 76.4699C96.5147 76.331 96 75.7245 96 74.9999H94ZM95.3682 72.2239C94.5381 72.8621 94 73.8683 94 74.9999H96C96 74.5158 96.2283 74.0854 96.5872 73.8095L95.3682 72.2239ZM92.3859 116.211C92.2141 116.337 92.0156 116.426 91.8011 116.47L92.1989 118.43C92.7042 118.327 93.1695 118.116 93.5691 117.823L92.3859 116.211ZM93.03 118.699C93.1026 118.341 93.3041 118.027 93.5871 117.81L92.3679 116.224C91.7141 116.727 91.2411 117.458 91.07 118.301L93.03 118.699ZM91 118C91 118.238 91.024 118.472 91.07 118.699L93.03 118.301C93.0104 118.205 93 118.104 93 118H91ZM91 117.45V118H93V117.45H91ZM97.93 118.699C97.976 118.472 98 118.238 98 118H96C96 118.104 95.9896 118.205 95.97 118.301L97.93 118.699ZM95.4129 117.81C95.6959 118.027 95.8974 118.341 95.97 118.699L97.93 118.301C97.7589 117.458 97.2859 116.727 96.6321 116.224L95.4129 117.81ZM97.1989 116.47C96.9844 116.426 96.7859 116.337 96.6141 116.211L95.4309 117.823C95.8305 118.116 96.2958 118.327 96.8011 118.43L97.1989 116.47ZM98 118V117.45H96V118H98ZM91.2917 72.4004C91.5303 72.9464 91.9033 73.4186 92.3682 73.776L93.5871 72.1903C93.3864 72.036 93.2262 71.8326 93.1243 71.5996L91.2917 72.4004ZM93.0234 72.7337C93.0442 72.6171 93.0784 72.5056 93.1243 72.4005L91.2917 71.5995C91.1835 71.8472 91.1031 72.1096 91.0545 72.3827L93.0234 72.7337ZM93.5694 72.177C93.1841 71.8942 92.7379 71.6879 92.2535 71.5815L91.8243 73.5349C92.0301 73.5801 92.2204 73.6678 92.3859 73.7893L93.5694 72.177Z" fill="black" mask="url(#path-1-inside-1_34_108)"/>
</svg>
