<svg width="190" height="190" viewBox="0 0 190 190" fill="none" xmlns="http://www.w3.org/2000/svg">
<circle cx="95" cy="95" r="94.5" fill="white" stroke="black"/>
<g filter="url(#filter0_d_56_236)">
<path d="M28.8393 66.1607L27.5319 60.9314C27.3046 60.022 27.7394 59.0767 28.5778 58.6575L29.4047 58.244L33.9285 56.5476L39.399 54.9065C39.5216 54.8697 39.6474 54.8448 39.7747 54.832L45.2381 54.2857H51.1337C51.3487 54.2857 51.5623 54.3204 51.7662 54.3883L58.244 56.5476L62.0036 58.1589C62.1357 58.2155 62.2613 58.2862 62.3783 58.3697L66.1607 61.0714L69.9212 63.7575C70.0526 63.8514 70.1721 63.9608 70.2772 64.0834L73.5119 67.8571L76.9047 72.3809L78.3201 74.2681C78.4359 74.4225 78.3257 74.6428 78.1327 74.6428C78.0706 74.6428 78.011 74.6182 77.9671 74.5742L76.9047 73.5119L75.3097 71.9168C75.2448 71.8519 75.1567 71.8155 75.065 71.8155C74.8466 71.8155 74.6828 72.0153 74.7256 72.2294L75.1296 74.2496C75.1703 74.453 75.0147 74.6428 74.8072 74.6428C74.7037 74.6428 74.6063 74.5941 74.5442 74.5113L69.6388 67.9708C69.582 67.8951 69.52 67.8235 69.453 67.7566L65.7122 64.0158C65.6343 63.9379 65.5502 63.8666 65.4605 63.8026L61.6369 61.0714L55.6995 57.8329C55.5121 57.7307 55.3096 57.6591 55.0996 57.6209L49.3738 56.5799C49.2558 56.5584 49.136 56.5476 49.0161 56.5476H43.244C43.0662 56.5476 42.8893 56.5713 42.7178 56.6181L36.947 58.1919C36.8199 58.2266 36.6966 58.2737 36.5788 58.3326L32.4979 60.3731C31.677 60.7835 31.2408 61.6999 31.4399 62.5958L32.2321 66.1607L33.3178 71.0462C33.3479 71.1817 33.392 71.3137 33.4494 71.44L36.0872 77.2432C36.1558 77.394 36.2428 77.5356 36.3462 77.665L38.2278 80.0169C38.3763 80.2026 38.5567 80.3602 38.7606 80.4825L40.8047 81.709C41.1155 81.8955 41.4712 81.994 41.8337 81.994H68.79C68.9217 81.994 69.0531 81.981 69.1823 81.9552L71.4275 81.5062C71.6836 81.4549 71.9273 81.354 72.1446 81.2091L73.4519 80.3376C73.4918 80.311 73.5289 80.2805 73.5628 80.2467L73.8147 79.9948C73.9598 79.8497 74.1949 79.8497 74.34 79.9948C74.4998 80.1546 74.481 80.4189 74.3002 80.5546L72.7974 81.6817C72.5776 81.8465 72.5548 82.1679 72.7491 82.3622C72.87 82.4831 73.0489 82.5254 73.2111 82.4713L74.6428 81.994L76.1054 81.5065C76.2487 81.4587 76.4067 81.496 76.5135 81.6028C76.706 81.7953 76.6533 82.1197 76.4099 82.2415L74.8419 83.0254C74.7098 83.0915 74.5694 83.1397 74.4245 83.1686L72.0096 83.6516C71.8805 83.6775 71.7491 83.6905 71.6174 83.6905H47.5H41.1864C40.8759 83.6905 40.5697 83.6182 40.292 83.4793L39.5833 83.125L37.0641 81.6135C36.8603 81.4912 36.6799 81.3335 36.5314 81.1479L34.6039 78.7385C34.5308 78.6471 34.4658 78.5495 34.4098 78.4468L31.1734 72.5134C31.1253 72.4252 31.0839 72.3335 31.0496 72.2392L28.8393 66.1607Z" fill="#1D1C1B"/>
<path d="M28.8393 66.1607L27.5319 60.9314C27.3046 60.022 27.7394 59.0767 28.5778 58.6575L29.4047 58.244L33.9285 56.5476L39.399 54.9065C39.5216 54.8697 39.6474 54.8448 39.7747 54.832L45.2381 54.2857H51.1337C51.3487 54.2857 51.5623 54.3204 51.7662 54.3883L58.244 56.5476L62.0036 58.1589C62.1357 58.2155 62.2613 58.2862 62.3783 58.3697L66.1607 61.0714L69.9212 63.7575C70.0526 63.8514 70.1721 63.9608 70.2772 64.0834L73.5119 67.8571L76.9047 72.3809L78.3201 74.2681C78.4359 74.4225 78.3257 74.6428 78.1327 74.6428C78.0706 74.6428 78.011 74.6182 77.9671 74.5742L76.9047 73.5119L75.3097 71.9168C75.2448 71.8519 75.1567 71.8155 75.065 71.8155C74.8466 71.8155 74.6828 72.0153 74.7256 72.2294L75.1296 74.2496C75.1703 74.453 75.0147 74.6428 74.8072 74.6428C74.7037 74.6428 74.6063 74.5941 74.5442 74.5113L69.6388 67.9708C69.582 67.8951 69.52 67.8235 69.453 67.7566L65.7122 64.0158C65.6343 63.9379 65.5502 63.8666 65.4605 63.8026L61.6369 61.0714L55.6995 57.8329C55.5121 57.7307 55.3096 57.6591 55.0996 57.6209L49.3738 56.5799C49.2558 56.5584 49.136 56.5476 49.0161 56.5476H43.244C43.0662 56.5476 42.8893 56.5713 42.7178 56.6181L36.947 58.1919C36.8199 58.2266 36.6966 58.2737 36.5788 58.3326L32.4979 60.3731C31.677 60.7835 31.2408 61.6999 31.4399 62.5958L32.2321 66.1607L33.3178 71.0462C33.3479 71.1817 33.392 71.3137 33.4494 71.44L36.0872 77.2432C36.1558 77.394 36.2428 77.5356 36.3462 77.665L38.2278 80.0169C38.3763 80.2026 38.5567 80.3602 38.7606 80.4825L40.8047 81.709C41.1155 81.8955 41.4712 81.994 41.8337 81.994H68.79C68.9217 81.994 69.0531 81.981 69.1823 81.9552L71.4275 81.5062C71.6836 81.4549 71.9273 81.354 72.1446 81.2091L73.4519 80.3376C73.4918 80.311 73.5289 80.2805 73.5628 80.2467L73.8147 79.9948C73.9598 79.8497 74.1949 79.8497 74.34 79.9948C74.4998 80.1546 74.481 80.4189 74.3002 80.5546L72.7974 81.6817C72.5776 81.8465 72.5548 82.1679 72.7491 82.3622C72.87 82.4831 73.0489 82.5254 73.2111 82.4713L74.6428 81.994L76.1054 81.5065C76.2487 81.4587 76.4067 81.496 76.5135 81.6028C76.706 81.7953 76.6533 82.1197 76.4099 82.2415L74.8419 83.0254C74.7098 83.0915 74.5694 83.1397 74.4245 83.1686L72.0096 83.6516C71.8805 83.6775 71.7491 83.6905 71.6174 83.6905H47.5H41.1864C40.8759 83.6905 40.5697 83.6182 40.292 83.4793L39.5833 83.125L37.0641 81.6135C36.8603 81.4912 36.6799 81.3335 36.5314 81.1479L34.6039 78.7385C34.5308 78.6471 34.4658 78.5495 34.4098 78.4468L31.1734 72.5134C31.1253 72.4252 31.0839 72.3335 31.0496 72.2392L28.8393 66.1607Z" stroke="#1D1C1B"/>
</g>
<g filter="url(#filter1_d_56_236)">
<path d="M72.6219 108.571H70.1191C69.4945 108.571 68.9881 108.065 68.9881 107.44C68.9881 106.816 69.4945 106.31 70.1191 106.31H93.3036H93.8691H94.4345C94.7468 106.31 95 106.563 95 106.875V107.44C95 108.065 94.4937 108.571 93.8691 108.571H92.7381H91.9317C91.7167 108.571 91.5032 108.606 91.2993 108.674L90.0456 109.092C89.9558 109.122 89.8682 109.158 89.7836 109.2L89.0701 109.557C88.8778 109.653 88.7023 109.78 88.5503 109.932L87.0833 111.399C86.7213 111.761 86.5179 112.252 86.5179 112.764V113.661V147.589V151.405C86.5179 151.5 86.5112 151.595 86.4978 151.688L85.9524 155.506L84.8747 159.817C84.8393 159.958 84.7885 160.096 84.7233 160.226L83.7711 162.13C83.7175 162.238 83.6543 162.34 83.5823 162.436L82.0793 164.44C82.0226 164.516 81.9605 164.587 81.8936 164.654L80.4377 166.11C80.3445 166.203 80.2424 166.287 80.1329 166.36L78.8241 167.232C78.6761 167.331 78.5158 167.409 78.3471 167.466L77.2127 167.844C77.0087 167.912 76.7952 167.946 76.5802 167.946H75.2083H74.6429H74.0774H70.1191H68.1817C67.9667 167.946 67.7532 167.912 67.5493 167.844L66.4148 167.466C66.2462 167.409 66.0858 167.331 65.9379 167.232L64.6291 166.36C64.5195 166.287 64.4174 166.203 64.3243 166.11L63.5628 165.349C63.4108 165.197 63.2843 165.021 63.1882 164.829L62.7679 163.988L62.4135 163.279C62.2747 163.002 62.2024 162.695 62.2024 162.385V162.292V160.595V160.502C62.2024 160.191 62.2747 159.885 62.4135 159.607L62.6227 159.189C62.7189 158.997 62.8454 158.821 62.9974 158.669L63.3333 158.333L64.0726 157.594C64.3289 157.338 64.6501 157.156 65.0017 157.068L66.4873 156.697C66.646 156.657 66.8089 156.637 66.9724 156.637H67.385C67.6955 156.637 68.0017 156.709 68.2794 156.848L68.6978 157.057C68.8901 157.153 69.0656 157.28 69.2176 157.432L69.5536 157.768L69.8896 158.104C70.0416 158.256 70.1681 158.431 70.2642 158.624L72.8458 163.787C72.9124 163.92 73.0002 164.042 73.1056 164.147C73.3658 164.407 73.7186 164.554 74.0865 164.554H74.6429C75.0049 164.554 75.3522 164.41 75.6082 164.154L76.6753 163.087C76.8273 162.935 76.9538 162.759 77.0499 162.567L77.2591 162.148C77.398 161.871 77.4702 161.565 77.4702 161.254V111.964C77.4702 111.602 77.3264 111.255 77.0704 110.999L76.4793 110.408C76.3862 110.315 76.2841 110.231 76.1745 110.158L74.8657 109.285C74.7178 109.187 74.5574 109.108 74.3888 109.052L73.2543 108.674C73.0504 108.606 72.8368 108.571 72.6219 108.571Z" fill="#1D1C1B"/>
<path d="M72.6219 108.571H70.1191C69.4945 108.571 68.9881 108.065 68.9881 107.44C68.9881 106.816 69.4945 106.31 70.1191 106.31H93.3036H93.8691H94.4345C94.7468 106.31 95 106.563 95 106.875V107.44C95 108.065 94.4937 108.571 93.8691 108.571H92.7381H91.9317C91.7167 108.571 91.5032 108.606 91.2993 108.674L90.0456 109.092C89.9558 109.122 89.8682 109.158 89.7836 109.2L89.0701 109.557C88.8778 109.653 88.7023 109.78 88.5503 109.932L87.0833 111.399C86.7213 111.761 86.5179 112.252 86.5179 112.764V113.661V147.589V151.405C86.5179 151.5 86.5112 151.595 86.4978 151.688L85.9524 155.506L84.8747 159.817C84.8393 159.958 84.7885 160.096 84.7233 160.226L83.7711 162.13C83.7175 162.238 83.6543 162.34 83.5823 162.436L82.0793 164.44C82.0226 164.516 81.9605 164.587 81.8936 164.654L80.4377 166.11C80.3445 166.203 80.2424 166.287 80.1329 166.36L78.8241 167.232C78.6761 167.331 78.5158 167.409 78.3471 167.466L77.2127 167.844C77.0087 167.912 76.7952 167.946 76.5802 167.946H75.2083H74.6429H74.0774H70.1191H68.1817C67.9667 167.946 67.7532 167.912 67.5493 167.844L66.4148 167.466C66.2462 167.409 66.0858 167.331 65.9379 167.232L64.6291 166.36C64.5195 166.287 64.4174 166.203 64.3243 166.11L63.5628 165.349C63.4108 165.197 63.2843 165.021 63.1882 164.829L62.7679 163.988L62.4135 163.279C62.2747 163.002 62.2024 162.695 62.2024 162.385V162.292V160.595V160.502C62.2024 160.191 62.2747 159.885 62.4135 159.607L62.6227 159.189C62.7189 158.997 62.8454 158.821 62.9974 158.669L63.3333 158.333L64.0726 157.594C64.3289 157.338 64.6501 157.156 65.0017 157.068L66.4873 156.697C66.646 156.657 66.8089 156.637 66.9724 156.637H67.385C67.6955 156.637 68.0017 156.709 68.2794 156.848L68.6978 157.057C68.8901 157.153 69.0656 157.28 69.2176 157.432L69.5536 157.768L69.8896 158.104C70.0416 158.256 70.1681 158.431 70.2642 158.624L72.8458 163.787C72.9124 163.92 73.0002 164.042 73.1056 164.147C73.3658 164.407 73.7186 164.554 74.0865 164.554H74.6429C75.0049 164.554 75.3522 164.41 75.6082 164.154L76.6753 163.087C76.8273 162.935 76.9538 162.759 77.0499 162.567L77.2591 162.148C77.398 161.871 77.4702 161.565 77.4702 161.254V111.964C77.4702 111.602 77.3264 111.255 77.0704 110.999L76.4793 110.408C76.3862 110.315 76.2841 110.231 76.1745 110.158L74.8657 109.285C74.7178 109.187 74.5574 109.108 74.3888 109.052L73.2543 108.674C73.0504 108.606 72.8368 108.571 72.6219 108.571Z" stroke="#1D1C1B"/>
</g>
<g filter="url(#filter2_d_56_236)">
<path d="M99.0252 109.137H97.9581C97.1774 109.137 96.5444 108.504 96.5444 107.723C96.5444 106.942 97.1774 106.31 97.9581 106.31H115.15H117.619C118.244 106.31 118.75 106.816 118.75 107.44C118.75 108.065 118.244 108.571 117.619 108.571H115.15H114.698C114.388 108.571 114.082 108.644 113.804 108.783L113.095 109.137L112.532 109.517C112.349 109.64 112.188 109.792 112.056 109.967L111.595 110.574C111.465 110.746 111.364 110.937 111.295 111.141L111.121 111.652C111.051 111.859 111.016 112.076 111.016 112.294V114.226V158.899V160.595V161.428C111.016 161.589 111.061 161.747 111.146 161.884C111.303 162.137 111.58 162.292 111.879 162.292H112.53H117.613H118.419C118.705 162.292 118.988 162.23 119.249 162.111L119.937 161.798C120.041 161.75 120.141 161.694 120.236 161.629L120.73 161.291C120.857 161.205 120.973 161.103 121.077 160.99L122.988 158.899L123.815 157.768L124.022 157.485C124.158 157.298 124.262 157.089 124.327 156.866L125.055 154.375L125.882 151.548L126.1 150.655C126.215 150.183 126.637 149.851 127.123 149.851H127.166C127.407 149.851 127.643 149.924 127.842 150.06C128.168 150.283 128.363 150.653 128.363 151.048V151.548V151.827C128.363 152.017 128.336 152.206 128.283 152.388L125.055 163.423L124.383 164.964C124.281 165.198 124.135 165.411 123.953 165.59L122.708 166.815C122.346 167.178 121.855 167.381 121.343 167.381H97.7848H96.9707C96.7028 167.381 96.451 167.253 96.2929 167.037C96.1877 166.893 96.131 166.719 96.131 166.541V166.25C96.131 165.604 96.6122 165.059 97.2533 164.979L99.8215 164.66C100.369 164.592 100.864 164.301 101.189 163.856L102.333 162.292L102.361 162.253C102.611 161.911 102.746 161.497 102.746 161.073V160.03V157.97V117.054V113.335C102.746 113.176 102.727 113.017 102.69 112.862L102.427 111.785C102.365 111.53 102.253 111.29 102.098 111.078L101.295 109.979C101.161 109.796 100.997 109.637 100.809 109.509L100.776 109.486C100.444 109.259 100.05 109.137 99.6472 109.137H99.0252Z" fill="#1D1C1B"/>
<path d="M99.0252 109.137H97.9581C97.1774 109.137 96.5444 108.504 96.5444 107.723C96.5444 106.942 97.1774 106.31 97.9581 106.31H115.15H117.619C118.244 106.31 118.75 106.816 118.75 107.44C118.75 108.065 118.244 108.571 117.619 108.571H115.15H114.698C114.388 108.571 114.082 108.644 113.804 108.783L113.095 109.137L112.532 109.517C112.349 109.64 112.188 109.792 112.056 109.967L111.595 110.574C111.465 110.746 111.364 110.937 111.295 111.141L111.121 111.652C111.051 111.859 111.016 112.076 111.016 112.294V114.226V158.899V160.595V161.428C111.016 161.589 111.061 161.747 111.146 161.884C111.303 162.137 111.58 162.292 111.879 162.292H112.53H117.613H118.419C118.705 162.292 118.988 162.23 119.249 162.111L119.937 161.798C120.041 161.75 120.141 161.694 120.236 161.629L120.73 161.291C120.857 161.205 120.973 161.103 121.077 160.99L122.988 158.899L123.815 157.768L124.022 157.485C124.158 157.298 124.262 157.089 124.327 156.866L125.055 154.375L125.882 151.548L126.1 150.655C126.215 150.183 126.637 149.851 127.123 149.851H127.166C127.407 149.851 127.643 149.924 127.842 150.06C128.168 150.283 128.363 150.653 128.363 151.048V151.548V151.827C128.363 152.017 128.336 152.206 128.283 152.388L125.055 163.423L124.383 164.964C124.281 165.198 124.135 165.411 123.953 165.59L122.708 166.815C122.346 167.178 121.855 167.381 121.343 167.381H97.7848H96.9707C96.7028 167.381 96.451 167.253 96.2929 167.037C96.1877 166.893 96.131 166.719 96.131 166.541V166.25C96.131 165.604 96.6122 165.059 97.2533 164.979L99.8215 164.66C100.369 164.592 100.864 164.301 101.189 163.856L102.333 162.292L102.361 162.253C102.611 161.911 102.746 161.497 102.746 161.073V160.03V157.97V117.054V113.335C102.746 113.176 102.727 113.017 102.69 112.862L102.427 111.785C102.365 111.53 102.253 111.29 102.098 111.078L101.295 109.979C101.161 109.796 100.997 109.637 100.809 109.509L100.776 109.486C100.444 109.259 100.05 109.137 99.6472 109.137H99.0252Z" stroke="#1D1C1B"/>
</g>
<g filter="url(#filter3_d_56_236)">
<circle cx="53.1547" cy="68.9881" r="11.3095" fill="url(#paint0_radial_56_236)"/>
<path fill-rule="evenodd" clip-rule="evenodd" d="M52.7648 62.3584L53.9657 67.0382H56.6647C57.957 67.0382 59.0046 68.0858 59.0046 69.3781C59.0046 70.6704 57.957 71.718 56.6647 71.718H53.9656L52.7648 76.3978L51.5639 71.718H48.8651C47.5728 71.718 46.5251 70.6704 46.5251 69.3781C46.5251 68.0858 47.5728 67.0382 48.865 67.0382H51.564L52.7648 62.3584Z" fill="#1D1C1B"/>
</g>
<g filter="url(#filter4_d_56_236)">
<path d="M161.726 66.1607L163.033 60.9314C163.261 60.022 162.826 59.0767 161.988 58.6575L161.161 58.244L156.637 56.5476L151.166 54.9065C151.044 54.8697 150.918 54.8448 150.791 54.832L145.327 54.2857H139.432C139.217 54.2857 139.003 54.3204 138.799 54.3883L132.321 56.5476L128.562 58.1589C128.43 58.2155 128.304 58.2862 128.187 58.3697L124.405 61.0714L120.644 63.7575C120.513 63.8514 120.393 63.9608 120.288 64.0834L117.054 67.8571L113.661 72.3809L112.245 74.2681C112.13 74.4225 112.24 74.6428 112.433 74.6428C112.495 74.6428 112.554 74.6182 112.598 74.5742L113.661 73.5119L115.256 71.9168C115.321 71.8519 115.409 71.8155 115.5 71.8155C115.719 71.8155 115.883 72.0153 115.84 72.2294L115.436 74.2496C115.395 74.453 115.551 74.6428 115.758 74.6428C115.862 74.6428 115.959 74.5941 116.021 74.5113L120.927 67.9708C120.983 67.8951 121.045 67.8235 121.112 67.7566L124.853 64.0158C124.931 63.9379 125.015 63.8666 125.105 63.8026L128.929 61.0714L134.866 57.8329C135.053 57.7307 135.256 57.6591 135.466 57.6209L141.192 56.5799C141.31 56.5584 141.429 56.5476 141.549 56.5476H147.321C147.499 56.5476 147.676 56.5713 147.848 56.6181L153.618 58.1919C153.746 58.2266 153.869 58.2737 153.987 58.3326L158.068 60.3731C158.888 60.7835 159.325 61.6999 159.126 62.5958L158.333 66.1607L157.248 71.0462C157.218 71.1817 157.173 71.3137 157.116 71.44L154.478 77.2432C154.41 77.394 154.323 77.5356 154.219 77.665L152.338 80.0169C152.189 80.2026 152.009 80.3602 151.805 80.4825L149.761 81.709C149.45 81.8955 149.094 81.994 148.732 81.994H121.775C121.644 81.994 121.512 81.981 121.383 81.9552L119.138 81.5062C118.882 81.4549 118.638 81.354 118.421 81.2091L117.114 80.3376C117.074 80.311 117.036 80.2805 117.003 80.2467L116.751 79.9948C116.606 79.8497 116.37 79.8497 116.225 79.9948C116.066 80.1546 116.084 80.4189 116.265 80.5546L117.768 81.6817C117.988 81.8465 118.011 82.1679 117.816 82.3622C117.695 82.4831 117.517 82.5254 117.354 82.4713L115.923 81.994L114.46 81.5065C114.317 81.4587 114.159 81.496 114.052 81.6028C113.859 81.7953 113.912 82.1197 114.156 82.2415L115.724 83.0254C115.856 83.0915 115.996 83.1397 116.141 83.1686L118.556 83.6516C118.685 83.6775 118.816 83.6905 118.948 83.6905H143.065H149.379C149.69 83.6905 149.996 83.6182 150.273 83.4793L150.982 83.125L153.501 81.6135C153.705 81.4912 153.886 81.3335 154.034 81.1479L155.962 78.7385C156.035 78.6471 156.1 78.5495 156.156 78.4468L159.392 72.5134C159.44 72.4252 159.482 72.3335 159.516 72.2392L161.726 66.1607Z" fill="#1D1C1B"/>
<path d="M161.726 66.1607L163.033 60.9314C163.261 60.022 162.826 59.0767 161.988 58.6575L161.161 58.244L156.637 56.5476L151.166 54.9065C151.044 54.8697 150.918 54.8448 150.791 54.832L145.327 54.2857H139.432C139.217 54.2857 139.003 54.3204 138.799 54.3883L132.321 56.5476L128.562 58.1589C128.43 58.2155 128.304 58.2862 128.187 58.3697L124.405 61.0714L120.644 63.7575C120.513 63.8514 120.393 63.9608 120.288 64.0834L117.054 67.8571L113.661 72.3809L112.245 74.2681C112.13 74.4225 112.24 74.6428 112.433 74.6428C112.495 74.6428 112.554 74.6182 112.598 74.5742L113.661 73.5119L115.256 71.9168C115.321 71.8519 115.409 71.8155 115.5 71.8155C115.719 71.8155 115.883 72.0153 115.84 72.2294L115.436 74.2496C115.395 74.453 115.551 74.6428 115.758 74.6428C115.862 74.6428 115.959 74.5941 116.021 74.5113L120.927 67.9708C120.983 67.8951 121.045 67.8235 121.112 67.7566L124.853 64.0158C124.931 63.9379 125.015 63.8666 125.105 63.8026L128.929 61.0714L134.866 57.8329C135.053 57.7307 135.256 57.6591 135.466 57.6209L141.192 56.5799C141.31 56.5584 141.429 56.5476 141.549 56.5476H147.321C147.499 56.5476 147.676 56.5713 147.848 56.6181L153.618 58.1919C153.746 58.2266 153.869 58.2737 153.987 58.3326L158.068 60.3731C158.888 60.7835 159.325 61.6999 159.126 62.5958L158.333 66.1607L157.248 71.0462C157.218 71.1817 157.173 71.3137 157.116 71.44L154.478 77.2432C154.41 77.394 154.323 77.5356 154.219 77.665L152.338 80.0169C152.189 80.2026 152.009 80.3602 151.805 80.4825L149.761 81.709C149.45 81.8955 149.094 81.994 148.732 81.994H121.775C121.644 81.994 121.512 81.981 121.383 81.9552L119.138 81.5062C118.882 81.4549 118.638 81.354 118.421 81.2091L117.114 80.3376C117.074 80.311 117.036 80.2805 117.003 80.2467L116.751 79.9948C116.606 79.8497 116.37 79.8497 116.225 79.9948C116.066 80.1546 116.084 80.4189 116.265 80.5546L117.768 81.6817C117.988 81.8465 118.011 82.1679 117.816 82.3622C117.695 82.4831 117.517 82.5254 117.354 82.4713L115.923 81.994L114.46 81.5065C114.317 81.4587 114.159 81.496 114.052 81.6028C113.859 81.7953 113.912 82.1197 114.156 82.2415L115.724 83.0254C115.856 83.0915 115.996 83.1397 116.141 83.1686L118.556 83.6516C118.685 83.6775 118.816 83.6905 118.948 83.6905H143.065H149.379C149.69 83.6905 149.996 83.6182 150.273 83.4793L150.982 83.125L153.501 81.6135C153.705 81.4912 153.886 81.3335 154.034 81.1479L155.962 78.7385C156.035 78.6471 156.1 78.5495 156.156 78.4468L159.392 72.5134C159.44 72.4252 159.482 72.3335 159.516 72.2392L161.726 66.1607Z" stroke="#1D1C1B"/>
</g>
<g filter="url(#filter5_d_56_236)">
<circle r="11.3095" transform="matrix(-1 0 0 1 137.418 68.9881)" fill="url(#paint1_radial_56_236)"/>
<path fill-rule="evenodd" clip-rule="evenodd" d="M137.808 62.3584L136.607 67.0382H133.908C132.616 67.0382 131.568 68.0858 131.568 69.3781C131.568 70.6704 132.615 71.718 133.908 71.718H136.607L137.808 76.3978L139.008 71.718H141.707C143 71.718 144.047 70.6704 144.047 69.3781C144.047 68.0858 143 67.0382 141.707 67.0382H139.008L137.808 62.3584Z" fill="#1D1C1B"/>
</g>
<g filter="url(#filter6_d_56_236)">
<path d="M25.7377 40.9628L23.3997 38.233C23.1421 37.9321 23.4083 37.475 23.7971 37.5507L40.6828 40.5309L55.6051 43.0526L65.6572 46.2124C65.7623 46.2455 65.8645 46.2871 65.9627 46.337L74.6957 50.7702C74.7964 50.8213 74.8926 50.8809 74.9832 50.9482L79.1223 54.0236C79.1502 54.0443 79.1666 54.0769 79.1666 54.1117C79.1666 54.1924 79.0824 54.2455 79.0096 54.2107L74.847 52.2225L63.459 48.3253L50.5001 45.1158L34.7925 42.5941L26.7864 41.5319C26.3787 41.4778 26.0053 41.2751 25.7377 40.9628Z" fill="#1D1C1B"/>
<path d="M25.7377 40.9628L23.3997 38.233C23.1421 37.9321 23.4083 37.475 23.7971 37.5507L40.6828 40.5309L55.6051 43.0526L65.6572 46.2124C65.7623 46.2455 65.8645 46.2871 65.9627 46.337L74.6957 50.7702C74.7964 50.8213 74.8926 50.8809 74.9832 50.9482L79.1223 54.0236C79.1502 54.0443 79.1666 54.0769 79.1666 54.1117C79.1666 54.1924 79.0824 54.2455 79.0096 54.2107L74.847 52.2225L63.459 48.3253L50.5001 45.1158L34.7925 42.5941L26.7864 41.5319C26.3787 41.4778 26.0053 41.2751 25.7377 40.9628Z" stroke="#1D1C1B"/>
</g>
<g filter="url(#filter7_d_56_236)">
<path d="M165.393 40.9628L167.731 38.233C167.989 37.9321 167.723 37.475 167.334 37.5507L150.448 40.5309L135.526 43.0526L125.474 46.2124C125.369 46.2455 125.266 46.2871 125.168 46.337L116.435 50.7702C116.334 50.8213 116.238 50.8809 116.148 50.9482L112.009 54.0236C111.981 54.0443 111.964 54.0769 111.964 54.1117C111.964 54.1924 112.048 54.2455 112.121 54.2107L116.284 52.2225L127.672 48.3253L140.631 45.1158L156.338 42.5941L164.344 41.5319C164.752 41.4778 165.126 41.2751 165.393 40.9628Z" fill="#1D1C1B"/>
<path d="M165.393 40.9628L167.731 38.233C167.989 37.9321 167.723 37.475 167.334 37.5507L150.448 40.5309L135.526 43.0526L125.474 46.2124C125.369 46.2455 125.266 46.2871 125.168 46.337L116.435 50.7702C116.334 50.8213 116.238 50.8809 116.148 50.9482L112.009 54.0236C111.981 54.0443 111.964 54.0769 111.964 54.1117C111.964 54.1924 112.048 54.2455 112.121 54.2107L116.284 52.2225L127.672 48.3253L140.631 45.1158L156.338 42.5941L164.344 41.5319C164.752 41.4778 165.126 41.2751 165.393 40.9628Z" stroke="#1D1C1B"/>
</g>
<defs>
<filter id="filter0_d_56_236" x="25.9719" y="53.7857" width="53.8964" height="32.4048" filterUnits="userSpaceOnUse" color-interpolation-filters="sRGB">
<feFlood flood-opacity="0" result="BackgroundImageFix"/>
<feColorMatrix in="SourceAlpha" type="matrix" values="0 0 0 0 0 0 0 0 0 0 0 0 0 0 0 0 0 0 127 0" result="hardAlpha"/>
<feOffset dy="1"/>
<feGaussianBlur stdDeviation="0.5"/>
<feComposite in2="hardAlpha" operator="out"/>
<feColorMatrix type="matrix" values="0 0 0 0 0.113725 0 0 0 0 0.109804 0 0 0 0 0.105882 0 0 0 0.25 0"/>
<feBlend mode="normal" in2="BackgroundImageFix" result="effect1_dropShadow_56_236"/>
<feBlend mode="normal" in="SourceGraphic" in2="effect1_dropShadow_56_236" result="shape"/>
</filter>
<filter id="filter1_d_56_236" x="60.7024" y="105.81" width="35.7976" height="64.6369" filterUnits="userSpaceOnUse" color-interpolation-filters="sRGB">
<feFlood flood-opacity="0" result="BackgroundImageFix"/>
<feColorMatrix in="SourceAlpha" type="matrix" values="0 0 0 0 0 0 0 0 0 0 0 0 0 0 0 0 0 0 127 0" result="hardAlpha"/>
<feOffset dy="1"/>
<feGaussianBlur stdDeviation="0.5"/>
<feComposite in2="hardAlpha" operator="out"/>
<feColorMatrix type="matrix" values="0 0 0 0 0.113725 0 0 0 0 0.109804 0 0 0 0 0.105882 0 0 0 0.25 0"/>
<feBlend mode="normal" in2="BackgroundImageFix" result="effect1_dropShadow_56_236"/>
<feBlend mode="normal" in="SourceGraphic" in2="effect1_dropShadow_56_236" result="shape"/>
</filter>
<filter id="filter2_d_56_236" x="94.631" y="105.81" width="35.2322" height="64.0714" filterUnits="userSpaceOnUse" color-interpolation-filters="sRGB">
<feFlood flood-opacity="0" result="BackgroundImageFix"/>
<feColorMatrix in="SourceAlpha" type="matrix" values="0 0 0 0 0 0 0 0 0 0 0 0 0 0 0 0 0 0 127 0" result="hardAlpha"/>
<feOffset dy="1"/>
<feGaussianBlur stdDeviation="0.5"/>
<feComposite in2="hardAlpha" operator="out"/>
<feColorMatrix type="matrix" values="0 0 0 0 0.113725 0 0 0 0 0.109804 0 0 0 0 0.105882 0 0 0 0.25 0"/>
<feBlend mode="normal" in2="BackgroundImageFix" result="effect1_dropShadow_56_236"/>
<feBlend mode="normal" in="SourceGraphic" in2="effect1_dropShadow_56_236" result="shape"/>
</filter>
<filter id="filter3_d_56_236" x="37.8452" y="57.6786" width="30.619" height="30.619" filterUnits="userSpaceOnUse" color-interpolation-filters="sRGB">
<feFlood flood-opacity="0" result="BackgroundImageFix"/>
<feColorMatrix in="SourceAlpha" type="matrix" values="0 0 0 0 0 0 0 0 0 0 0 0 0 0 0 0 0 0 127 0" result="hardAlpha"/>
<feOffset dy="4"/>
<feGaussianBlur stdDeviation="2"/>
<feComposite in2="hardAlpha" operator="out"/>
<feColorMatrix type="matrix" values="0 0 0 0 0.113725 0 0 0 0 0.109804 0 0 0 0 0.105882 0 0 0 0.25 0"/>
<feBlend mode="normal" in2="BackgroundImageFix" result="effect1_dropShadow_56_236"/>
<feBlend mode="normal" in="SourceGraphic" in2="effect1_dropShadow_56_236" result="shape"/>
</filter>
<filter id="filter4_d_56_236" x="110.697" y="53.7857" width="53.8964" height="32.4048" filterUnits="userSpaceOnUse" color-interpolation-filters="sRGB">
<feFlood flood-opacity="0" result="BackgroundImageFix"/>
<feColorMatrix in="SourceAlpha" type="matrix" values="0 0 0 0 0 0 0 0 0 0 0 0 0 0 0 0 0 0 127 0" result="hardAlpha"/>
<feOffset dy="1"/>
<feGaussianBlur stdDeviation="0.5"/>
<feComposite in2="hardAlpha" operator="out"/>
<feColorMatrix type="matrix" values="0 0 0 0 0.113725 0 0 0 0 0.109804 0 0 0 0 0.105882 0 0 0 0.25 0"/>
<feBlend mode="normal" in2="BackgroundImageFix" result="effect1_dropShadow_56_236"/>
<feBlend mode="normal" in="SourceGraphic" in2="effect1_dropShadow_56_236" result="shape"/>
</filter>
<filter id="filter5_d_56_236" x="122.108" y="57.6786" width="30.619" height="30.619" filterUnits="userSpaceOnUse" color-interpolation-filters="sRGB">
<feFlood flood-opacity="0" result="BackgroundImageFix"/>
<feColorMatrix in="SourceAlpha" type="matrix" values="0 0 0 0 0 0 0 0 0 0 0 0 0 0 0 0 0 0 127 0" result="hardAlpha"/>
<feOffset dy="4"/>
<feGaussianBlur stdDeviation="2"/>
<feComposite in2="hardAlpha" operator="out"/>
<feColorMatrix type="matrix" values="0 0 0 0 0.113725 0 0 0 0 0.109804 0 0 0 0 0.105882 0 0 0 0.25 0"/>
<feBlend mode="normal" in2="BackgroundImageFix" result="effect1_dropShadow_56_236"/>
<feBlend mode="normal" in="SourceGraphic" in2="effect1_dropShadow_56_236" result="shape"/>
</filter>
<filter id="filter6_d_56_236" x="21.7959" y="37.0416" width="58.8707" height="19.6806" filterUnits="userSpaceOnUse" color-interpolation-filters="sRGB">
<feFlood flood-opacity="0" result="BackgroundImageFix"/>
<feColorMatrix in="SourceAlpha" type="matrix" values="0 0 0 0 0 0 0 0 0 0 0 0 0 0 0 0 0 0 127 0" result="hardAlpha"/>
<feOffset dy="1"/>
<feGaussianBlur stdDeviation="0.5"/>
<feComposite in2="hardAlpha" operator="out"/>
<feColorMatrix type="matrix" values="0 0 0 0 0.113725 0 0 0 0 0.109804 0 0 0 0 0.105882 0 0 0 0.25 0"/>
<feBlend mode="normal" in2="BackgroundImageFix" result="effect1_dropShadow_56_236"/>
<feBlend mode="normal" in="SourceGraphic" in2="effect1_dropShadow_56_236" result="shape"/>
</filter>
<filter id="filter7_d_56_236" x="110.464" y="37.0416" width="58.8707" height="19.6806" filterUnits="userSpaceOnUse" color-interpolation-filters="sRGB">
<feFlood flood-opacity="0" result="BackgroundImageFix"/>
<feColorMatrix in="SourceAlpha" type="matrix" values="0 0 0 0 0 0 0 0 0 0 0 0 0 0 0 0 0 0 127 0" result="hardAlpha"/>
<feOffset dy="1"/>
<feGaussianBlur stdDeviation="0.5"/>
<feComposite in2="hardAlpha" operator="out"/>
<feColorMatrix type="matrix" values="0 0 0 0 0.113725 0 0 0 0 0.109804 0 0 0 0 0.105882 0 0 0 0.25 0"/>
<feBlend mode="normal" in2="BackgroundImageFix" result="effect1_dropShadow_56_236"/>
<feBlend mode="normal" in="SourceGraphic" in2="effect1_dropShadow_56_236" result="shape"/>
</filter>
<radialGradient id="paint0_radial_56_236" cx="0" cy="0" r="1" gradientUnits="userSpaceOnUse" gradientTransform="translate(53.1547 68.9881) rotate(90) scale(11.3095)">
<stop stop-color="white" stop-opacity="0.24"/>
<stop offset="1" stop-color="#1D1C1B" stop-opacity="0.99"/>
</radialGradient>
<radialGradient id="paint1_radial_56_236" cx="0" cy="0" r="1" gradientUnits="userSpaceOnUse" gradientTransform="translate(11.3095 11.3095) rotate(90) scale(11.3095)">
<stop stop-color="white" stop-opacity="0.24"/>
<stop offset="1" stop-color="#1D1C1B" stop-opacity="0.99"/>
</radialGradient>
</defs>
</svg>
